<?xml version="1.0" ?><svg id="Layer_1" style="enable-background:new 0 0 48 48;" version="1.1" viewBox="0 0 48 48" xml:space="preserve" xmlns="http://www.w3.org/2000/svg" xmlns:xlink="http://www.w3.org/1999/xlink"><style type="text/css">
	.st0{fill:#FF4676;}
	.st1{fill:#0F1C70;}
	.st2{fill:#FFE92E;}
	.st3{fill:#17D5D1;}
	.st4{fill:#FFFFFF;}
	.st5{fill:#EA2461;}
	.st6{fill:#F2F2F2;}
</style><g><g><g><g><g><g><g><g><g><g><g><g><g><g><circle class="st2" cx="24" cy="24" r="24"/></g></g></g></g></g></g></g></g></g></g></g></g></g><g><g><g><g><g><g><g><g><g><g><g><g><g><g><circle class="st0" cx="24" cy="24" r="18.1"/></g></g></g></g></g></g></g></g></g></g></g></g></g><g><g><g><g><g><g><g><g><g><g><g><g><g><circle class="st4" cx="24" cy="24" r="14.4"/></g></g></g></g></g></g></g></g></g></g></g></g></g><g><path class="st0" d="M28.2,20.3L16.7,31.8c-0.1,0.1-0.4,0.1-0.5,0l0,0c-0.1-0.1-0.1-0.4,0-0.5l11.5-11.5c0.1-0.1,0.4-0.1,0.5,0h0     C28.4,19.9,28.4,20.2,28.2,20.3z"/></g><path class="st3" d="M24,24L24,24c-0.6,0-1.1-0.5-1.1-1.1v-9.5c0-0.6,0.5-1.1,1.1-1.1h0c0.6,0,1.1,0.5,1.1,1.1v9.5    C25.1,23.5,24.6,24,24,24z"/><path class="st2" d="M23.1,23.1L23.1,23.1c0.4-0.4,1.1-0.4,1.6,0l5.6,5.6c0.4,0.4,0.4,1.1,0,1.6l0,0c-0.4,0.4-1.1,0.4-1.6,0    l-5.6-5.6C22.6,24.2,22.6,23.5,23.1,23.1z"/><g><g><g><g><g><g><g><g><g><g><g><g><g><circle class="st1" cx="24" cy="24" r="2.4"/></g></g></g></g></g></g></g></g></g></g></g></g></g></g></g></svg>