<?xml version="1.0" ?><svg id="Layer_1" style="enable-background:new 0 0 48 48;" version="1.1" viewBox="0 0 48 48" xml:space="preserve" xmlns="http://www.w3.org/2000/svg" xmlns:xlink="http://www.w3.org/1999/xlink"><style type="text/css">
	.st0{fill:#FF4676;}
	.st1{fill:#0F1C70;}
	.st2{fill:#FFE92E;}
	.st3{fill:#17D5D1;}
	.st4{fill:#FFFFFF;}
	.st5{fill:#EA2461;}
	.st6{fill:#F2F2F2;}
</style><g><g><g><g><g><g><g><g><g><g><g><g><g><g><g><g><circle class="st2" cx="24" cy="24" r="24"/></g></g></g></g></g></g></g></g></g></g></g></g></g></g></g><g><g><path class="st6" d="M37.5,21c0-3.5-1.4-6.7-3.7-9c-2.3-2.3-5.5-3.7-9-3.7c-7,0-12.7,6.1-12.7,13.1v5.7c0,5.2,3.1,9.7,7.6,11.6     v2.8h13.1v-1.7h3.6c0.7,0,1.2-0.5,1.2-1.2v-6.8h4.3L37.5,21z"/></g><g><path class="st0" d="M27.9,15.8c0,2.4-2,4.4-4.4,4.4H11c-2.4,0-4.4-2-4.4-4.4c0-2.2,1.6-4,3.6-4.3c0.3-3.3,3-5.8,6.3-5.8     c3.3,0,6,2.5,6.3,5.8c0.2,0,0.4-0.1,0.6-0.1C25.9,11.4,27.9,13.4,27.9,15.8z"/></g><g><polygon class="st1" points="19.7,16.9 15.4,17.5 13.9,23 16.6,23 15,27.4 20.6,21.3 17.4,21.3    "/></g></g></g></svg>