
		<svg xmlns="http://www.w3.org/2000/svg" xmlns:xlink="http://www.w3.org/1999/xlink" version="1.1" width="3206.896551724138" height="941.3793103448276">
			
			<g transform="scale(10.344827586206897) translate(10, 10)">
				<defs id="SvgjsDefs11312"></defs><g id="SvgjsG11313" featureKey="root" fill="#000000"></g><g id="SvgjsG11314" featureKey="symbol1" fill="#f26623" transform="matrix(0.7173233658526327,0,0,0.7173233658526327,-1.1075480676878233,0)"><path xmlns="http://www.w3.org/2000/svg" d="M95.267,21.241c2.133,0,3.862-1.729,3.862-3.862s-1.729-3.862-3.862-3.862c-1.828,0-3.353,1.275-3.752,2.982l-19.04,3.862  c-0.917-1.805-2.638-3.127-4.693-3.498l-0.3-8.391c1.576-0.673,2.683-2.235,2.683-4.059C70.164,1.976,68.188,0,65.75,0  c-2.437,0-4.414,1.976-4.414,4.414c0,2.086,1.451,3.822,3.396,4.283l0.295,8.255c-1.637,0.404-3.031,1.415-3.929,2.786  l-15.608-9.439c0.073-0.296,0.123-0.602,0.123-0.92c0-2.134-1.729-3.862-3.862-3.862c-2.132,0-3.862,1.728-3.862,3.862  s1.729,3.862,3.862,3.862c0.805,0,1.552-0.248,2.17-0.669l16.183,9.789c-0.048,0.319-0.08,0.644-0.08,0.976  c0,0.963,0.212,1.875,0.583,2.699L36.021,50.564c-1.135-0.928-2.584-1.486-4.165-1.486c-1.343,0-2.59,0.404-3.631,1.094  L16.558,38.505c0.616-0.875,0.985-1.937,0.985-3.088c0-2.971-2.408-5.379-5.379-5.379c-2.971,0-5.379,2.408-5.379,5.379  c0,2.971,2.409,5.379,5.379,5.379c0.813,0,1.577-0.194,2.268-0.518l11.865,11.866c-0.646,1.019-1.025,2.223-1.025,3.518  c0,0.497,0.06,0.979,0.164,1.444l-16.813,5.65c-0.692-1.042-1.873-1.729-3.217-1.729c-2.133,0-3.862,1.729-3.862,3.862  c0,2.133,1.729,3.86,3.862,3.86c1.934,0,3.521-1.425,3.803-3.28l17.398-5.846c0.998,1.32,2.479,2.249,4.183,2.527l-0.003,9.885  c-1.973,0.439-3.45,2.195-3.45,4.301c0,2.438,1.976,4.413,4.414,4.413s4.414-1.976,4.414-4.413c0-1.798-1.078-3.338-2.62-4.025  l0.004-10.294c1.898-0.505,3.455-1.832,4.271-3.58l22.252,4.481C60.039,63.152,60,63.383,60,63.625c0,2.83,2.295,5.125,5.125,5.125  c0.374,0,0.736-0.045,1.087-0.121l3.639,8.99c-1.05,0.836-1.737,2.107-1.737,3.555c0,0.74,0.193,1.43,0.508,2.047l-7.385,7.743  c-0.033-0.013-0.062-0.034-0.097-0.046c-2.006-0.723-4.219,0.32-4.94,2.326c-0.721,2.006,0.32,4.218,2.326,4.94  c2.008,0.722,4.219-0.321,4.941-2.327c0.372-1.035,0.268-2.121-0.189-3.035l7.281-7.637c0.633,0.333,1.342,0.538,2.105,0.538  c1.195,0,2.273-0.47,3.086-1.224l13.693,9.205c-0.138,0.396-0.228,0.815-0.228,1.261c0,2.133,1.729,3.86,3.86,3.86  c2.133,0,3.862-1.729,3.862-3.86c0-2.134-1.729-3.862-3.862-3.862c-0.668,0-1.289,0.186-1.838,0.486l-14.119-9.491  c0.062-0.299,0.097-0.608,0.097-0.926c0-2.515-2.038-4.552-4.552-4.552c-0.08,0-0.153,0.019-0.231,0.022l-3.754-9.337  c0.966-0.932,1.571-2.234,1.571-3.682c0-2.83-2.295-5.125-5.125-5.125c-1.594,0-3.001,0.743-3.94,1.886l-22.749-4.652  c0-0.024,0.003-0.047,0.003-0.071c0-1.056-0.254-2.05-0.696-2.934l24.501-24.472c1.162,1.031,2.688,1.663,4.363,1.663  c1.354,0,2.61-0.41,3.656-1.11l12.703,12.703c-0.246,0.55-0.391,1.156-0.391,1.797c0,2.439,1.977,4.414,4.414,4.414  s4.413-1.975,4.413-4.414c0-2.438-1.976-4.414-4.413-4.414c-0.787,0-1.516,0.223-2.154,0.584L72.183,26.826  c0.635-1.013,1.008-2.207,1.008-3.49c0-0.103-0.011-0.202-0.016-0.304L91.9,19.235C92.558,20.426,93.811,21.241,95.267,21.241z"></path></g><g id="SvgjsG11315" featureKey="text1" fill="#ffffff" transform="matrix(1.8608550720518433,0,0,1.8608550720518433,88.82764700536747,4.8477774067021)"><path d="M13.82 23.18 c0.06666 0.14666 0.066582 0.29668 -0.000078126 0.45002 s-0.17332 0.26334 -0.31998 0.33 c-0.04 0.01334 -0.07666 0.02334 -0.11 0.03 s-0.07 0.01 -0.11 0.01 c-0.26666 0 -0.44666 -0.12 -0.54 -0.36 l-1.66 -3.9 l-7.64 0 l-1.68 3.9 c-0.06666 0.14666 -0.17332 0.25332 -0.31998 0.31998 s-0.29332 0.06666 -0.43998 0 s-0.25332 -0.17666 -0.31998 -0.33 s-0.06666 -0.30334 0 -0.45 l1.82 -4.26 l4.22 -9.88 c0.09334 -0.24 0.27334 -0.36 0.54 -0.36 c0.25334 0 0.43334 0.12 0.54 0.36 l4.2 9.88 z M10.58 18.56 l-3.32 -7.8 l-3.32 7.8 l6.64 0 z M17.64 23.42 c0 0.12 -0.04668 0.24004 -0.14002 0.36004 c-0.10666 0.14666 -0.25332 0.22 -0.43998 0.22 c-0.17334 0 -0.31668 -0.05666 -0.43002 -0.17 s-0.17 -0.25 -0.17 -0.41 l0 -8.54 c0 -0.16 0.05666 -0.29666 0.17 -0.41 s0.25668 -0.17 0.43002 -0.17 c0.16 0 0.29666 0.05666 0.41 0.17 s0.17 0.25 0.17 0.41 l0 0.5 c0.14666 -0.30666 0.38666 -0.56332 0.72 -0.76998 s0.67334 -0.31 1.02 -0.31 c0.6 0 1.0833 0.14 1.45 0.42 s0.65 0.69334 0.85 1.24 c0.06666 0.18666 0.05 0.37 -0.05 0.55 s-0.26334 0.27 -0.49 0.27 c-0.2 0 -0.35 -0.07334 -0.45 -0.22 s-0.2 -0.30666 -0.3 -0.48 s-0.23334 -0.32668 -0.4 -0.46002 s-0.41666 -0.18668 -0.75 -0.16002 c-0.21334 0.01334 -0.41668 0.07334 -0.61002 0.18 s-0.36334 0.24332 -0.51 0.40998 s-0.26332 0.35 -0.34998 0.55 s-0.13 0.40666 -0.13 0.62 l0 6.2 z M31.86 16.14 c0 0.16 -0.05998 0.29664 -0.17998 0.40998 s-0.26 0.17 -0.42 0.17 c-0.09334 0 -0.17 -0.01334 -0.23 -0.04 s-0.12334 -0.06666 -0.19 -0.12 c-0.4 -0.34666 -0.79334 -0.61332 -1.18 -0.79998 s-0.85332 -0.28 -1.4 -0.28 c-0.50666 0 -0.98332 0.09666 -1.43 0.29 s-0.83666 0.45668 -1.17 0.79002 s-0.59668 0.72334 -0.79002 1.17 s-0.29 0.92332 -0.29 1.43 s0.09666 0.98332 0.29 1.43 s0.45668 0.83332 0.79002 1.16 s0.72334 0.58666 1.17 0.78 s0.92332 0.29 1.43 0.29 c0.54666 0 1.0133 -0.09334 1.4 -0.28 s0.78 -0.45332 1.18 -0.79998 c0.06666 -0.05334 0.13 -0.09334 0.19 -0.12 s0.13666 -0.04 0.23 -0.04 c0.16 0 0.3 0.05666 0.42 0.17 s0.18 0.25 0.18 0.41 c0 0.09334 -0.01666 0.17 -0.05 0.23 s-0.07668 0.12334 -0.13002 0.19 c-0.41334 0.46666 -0.93668 0.82 -1.57 1.06 s-1.25 0.36 -1.85 0.36 c-0.66666 0 -1.2967 -0.12666 -1.89 -0.38 s-1.11 -0.6 -1.55 -1.04 s-0.78666 -0.95334 -1.04 -1.54 s-0.38 -1.2133 -0.38 -1.88 s0.12666 -1.2967 0.38 -1.89 s0.6 -1.11 1.04 -1.55 s0.95666 -0.78666 1.55 -1.04 s1.2233 -0.38 1.89 -0.38 c0.6 0 1.2167 0.12 1.85 0.36 s1.1567 0.59334 1.57 1.06 c0.12 0.14666 0.18 0.28666 0.18 0.42 z  M43.54 23.42 c0 0.16 -0.05666 0.29664 -0.17 0.40998 s-0.25 0.17 -0.41 0.17 c-0.17334 0 -0.31668 -0.05666 -0.43002 -0.17 s-0.17 -0.25 -0.17 -0.41 l0 -1.12 c-0.46666 0.54666 -1.0167 0.96666 -1.65 1.26 s-1.3033 0.44 -2.01 0.44 c-0.66666 0 -1.2967 -0.12666 -1.89 -0.38 s-1.11 -0.6 -1.55 -1.04 s-0.78666 -0.95334 -1.04 -1.54 s-0.38 -1.2133 -0.38 -1.88 s0.12666 -1.2967 0.38 -1.89 s0.6 -1.11 1.04 -1.55 s0.95666 -0.78666 1.55 -1.04 s1.2233 -0.38 1.89 -0.38 c0.70666 0 1.3767 0.14666 2.01 0.44 s1.1833 0.71334 1.65 1.26 l0 -1.12 c0 -0.16 0.05666 -0.29666 0.17 -0.41 s0.25668 -0.17 0.43002 -0.17 c0.16 0 0.29666 0.05666 0.41 0.17 s0.17 0.25 0.17 0.41 l0 8.54 z M42.36 19.16 c0 -0.50666 -0.09666 -0.98332 -0.29 -1.43 s-0.45334 -0.83666 -0.78 -1.17 s-0.71332 -0.59668 -1.16 -0.79002 s-0.92332 -0.29 -1.43 -0.29 s-0.98332 0.09666 -1.43 0.29 s-0.83666 0.45668 -1.17 0.79002 s-0.59668 0.72334 -0.79002 1.17 s-0.29 0.92332 -0.29 1.43 s0.09666 0.98332 0.29 1.43 s0.45668 0.83332 0.79002 1.16 s0.72334 0.58666 1.17 0.78 s0.92332 0.29 1.43 0.29 s0.98332 -0.09666 1.43 -0.29 s0.83332 -0.45334 1.16 -0.78 s0.58666 -0.71332 0.78 -1.16 s0.29 -0.92332 0.29 -1.43 z M54.34 23.42 c0 0.16 -0.05668 0.29666 -0.17002 0.41 s-0.25 0.17 -0.41 0.17 s-0.3 -0.05666 -0.42 -0.17 s-0.18 -0.25 -0.18 -0.41 l0 -5.7 c0 -0.30666 -0.06 -0.59666 -0.18 -0.87 s-0.28 -0.51 -0.48 -0.71 s-0.43666 -0.36 -0.71 -0.48 s-0.56334 -0.18 -0.87 -0.18 s-0.59666 0.06 -0.87 0.18 s-0.51 0.28 -0.71 0.48 s-0.36 0.43666 -0.48 0.71 s-0.18 0.56334 -0.18 0.87 c0 0.02666 -0.0066602 0.05666 -0.02 0.09 s-0.02 0.07 -0.02 0.11 l0 5.5 c0 0.16 -0.05666 0.29666 -0.17 0.41 s-0.25 0.17 -0.41 0.17 c-0.17334 0 -0.31668 -0.05666 -0.43002 -0.17 s-0.17 -0.25 -0.17 -0.41 l0 -8.66 c0 -0.17334 0.05666 -0.31668 0.17 -0.43002 s0.25668 -0.17 0.43002 -0.17 c0.14666 0 0.26 0.03334 0.34 0.1 s0.13666 0.15 0.17 0.25 s0.05334 0.21 0.06 0.33 s0.01 0.23334 0.01 0.34 c0.30666 -0.28 0.65666 -0.49666 1.05 -0.65 s0.80334 -0.23 1.23 -0.23 c0.46666 0 0.90666 0.09 1.32 0.27 s0.77668 0.42666 1.09 0.74 s0.56 0.67668 0.74 1.09 s0.27 0.85334 0.27 1.32 l0 5.7 z M59.58 11.46 c0 0.24 -0.08666 0.44666 -0.26 0.62 s-0.38 0.26 -0.62 0.26 s-0.44666 -0.08666 -0.62 -0.26 s-0.26 -0.38 -0.26 -0.62 c0 -0.25334 0.08666 -0.46 0.26 -0.62 s0.38 -0.24 0.62 -0.24 c0.25334 0 0.46334 0.08 0.63 0.24 s0.25 0.36666 0.25 0.62 z M59.3 23.42 c0 0.16 -0.06 0.29666 -0.18 0.41 s-0.26 0.17 -0.42 0.17 s-0.29666 -0.05666 -0.41 -0.17 s-0.17 -0.25 -0.17 -0.41 l0 -8.54 c0 -0.16 0.05666 -0.29666 0.17 -0.41 s0.25 -0.17 0.41 -0.17 s0.3 0.05666 0.42 0.17 s0.18 0.25 0.18 0.41 l0 8.54 z M70.4 20.28 c0 0.50666 -0.096718 0.98332 -0.29006 1.43 s-0.45334 0.83666 -0.78 1.17 s-0.71332 0.59668 -1.16 0.79002 s-0.92332 0.29 -1.43 0.29 s-0.98332 -0.09666 -1.43 -0.29 s-0.83666 -0.45668 -1.17 -0.79002 s-0.59668 -0.72334 -0.79002 -1.17 s-0.29 -0.92332 -0.29 -1.43 l0 -5.3 c0 -0.16 0.05666 -0.3 0.17 -0.42 s0.25668 -0.18 0.43002 -0.18 c0.16 0 0.29666 0.06 0.41 0.18 s0.17 0.26 0.17 0.42 l0 5.3 c0 0.34666 0.06666 0.67 0.2 0.97 s0.31334 0.56334 0.54 0.79 s0.49 0.40666 0.79 0.54 s0.62334 0.2 0.97 0.2 s0.67 -0.06666 0.97 -0.2 s0.56334 -0.31334 0.79 -0.54 s0.40666 -0.49 0.54 -0.79 s0.2 -0.62334 0.2 -0.97 l0 -5.3 c0 -0.16 0.05666 -0.3 0.17 -0.42 s0.25 -0.18 0.41 -0.18 s0.29666 0.06 0.41 0.18 s0.17 0.26 0.17 0.42 l0 5.3 z M86.44 23.42 c0 0.16 -0.05666 0.29666 -0.17 0.41 s-0.25 0.17 -0.41 0.17 s-0.29666 -0.05666 -0.41 -0.17 s-0.17 -0.25 -0.17 -0.41 l0 -5.7 c0 -0.30666 -0.06 -0.59666 -0.18 -0.87 s-0.28334 -0.51 -0.49 -0.71 s-0.44666 -0.36 -0.72 -0.48 s-0.56334 -0.18 -0.87 -0.18 s-0.59666 0.06 -0.87 0.18 s-0.51 0.28 -0.71 0.48 s-0.36 0.43666 -0.48 0.71 s-0.18 0.56334 -0.18 0.87 l0 5.7 c0 0.16 -0.05666 0.29666 -0.17 0.41 s-0.25 0.17 -0.41 0.17 s-0.3 -0.05666 -0.42 -0.17 s-0.18 -0.25 -0.18 -0.41 l0 -5.7 c0 -0.30666 -0.06 -0.59666 -0.18 -0.87 s-0.28 -0.51 -0.48 -0.71 s-0.43666 -0.36 -0.71 -0.48 s-0.56334 -0.18 -0.87 -0.18 s-0.59666 0.06 -0.87 0.18 s-0.51 0.28 -0.71 0.48 s-0.36 0.43666 -0.48 0.71 s-0.18 0.56334 -0.18 0.87 c0 0.02666 -0.0066602 0.05666 -0.02 0.09 s-0.02 0.07 -0.02 0.11 l0 5.5 c0 0.16 -0.05666 0.29666 -0.17 0.41 s-0.25 0.17 -0.41 0.17 c-0.17334 0 -0.31668 -0.05666 -0.43002 -0.17 s-0.17 -0.25 -0.17 -0.41 l0 -8.66 c0 -0.17334 0.05666 -0.31668 0.17 -0.43002 s0.25668 -0.17 0.43002 -0.17 c0.14666 0 0.26 0.03334 0.34 0.1 s0.13666 0.15 0.17 0.25 s0.05334 0.21 0.06 0.33 s0.01 0.23334 0.01 0.34 c0.30666 -0.28 0.65666 -0.49666 1.05 -0.65 s0.80334 -0.23 1.23 -0.23 c0.57334 0 1.11 0.13334 1.61 0.4 s0.91 0.63332 1.23 1.1 c0.30666 -0.46666 0.71332 -0.83332 1.22 -1.1 s1.04 -0.4 1.6 -0.4 c0.46666 0 0.90666 0.09 1.32 0.27 s0.77668 0.42666 1.09 0.74 s0.56 0.67668 0.74 1.09 s0.27 0.85334 0.27 1.32 l0 5.7 z M90.63999999999999 23.12 c0 0.24 -0.08666 0.44666 -0.26 0.62 s-0.38 0.26 -0.62 0.26 s-0.44666 -0.08666 -0.62 -0.26 s-0.26 -0.38 -0.26 -0.62 c0 -0.25334 0.08334 -0.46 0.25 -0.62 s0.37666 -0.24 0.63 -0.24 s0.46334 0.08 0.63 0.24 s0.25 0.36666 0.25 0.62 z M95.25999999999999 11.46 c0 0.24 -0.08666 0.44666 -0.26 0.62 s-0.38 0.26 -0.62 0.26 s-0.44666 -0.08666 -0.62 -0.26 s-0.26 -0.38 -0.26 -0.62 c0 -0.25334 0.08666 -0.46 0.26 -0.62 s0.38 -0.24 0.62 -0.24 c0.25334 0 0.46334 0.08 0.63 0.24 s0.25 0.36666 0.25 0.62 z M94.97999999999999 23.42 c0 0.16 -0.06 0.29666 -0.18 0.41 s-0.26 0.17 -0.42 0.17 s-0.29666 -0.05666 -0.41 -0.17 s-0.17 -0.25 -0.17 -0.41 l0 -8.54 c0 -0.16 0.05666 -0.29666 0.17 -0.41 s0.25 -0.17 0.41 -0.17 s0.3 0.05666 0.42 0.17 s0.18 0.25 0.18 0.41 l0 8.54 z M98.3 19.16 c0 -0.66666 0.12666 -1.2967 0.38 -1.89 s0.6 -1.11 1.04 -1.55 s0.95666 -0.78666 1.55 -1.04 s1.2233 -0.38 1.89 -0.38 s1.2933 0.12666 1.88 0.38 s1.1 0.6 1.54 1.04 s0.78666 0.95666 1.04 1.55 s0.38 1.2233 0.38 1.89 s-0.12666 1.2933 -0.38 1.88 s-0.6 1.1 -1.04 1.54 s-0.95334 0.78666 -1.54 1.04 s-1.2133 0.38 -1.88 0.38 s-1.2967 -0.12666 -1.89 -0.38 s-1.11 -0.6 -1.55 -1.04 s-0.78666 -0.95334 -1.04 -1.54 s-0.38 -1.2133 -0.38 -1.88 z M99.48 19.16 c0 0.50666 0.09666 0.98332 0.29 1.43 s0.45668 0.83332 0.79002 1.16 s0.72334 0.58666 1.17 0.78 s0.92332 0.29 1.43 0.29 s0.98332 -0.09666 1.43 -0.29 s0.83332 -0.45334 1.16 -0.78 s0.58666 -0.71332 0.78 -1.16 s0.29 -0.92332 0.29 -1.43 s-0.09666 -0.98332 -0.29 -1.43 s-0.45334 -0.83666 -0.78 -1.17 s-0.71332 -0.59668 -1.16 -0.79002 s-0.92332 -0.29 -1.43 -0.29 s-0.98332 0.09666 -1.43 0.29 s-0.83666 0.45668 -1.17 0.79002 s-0.59668 0.72334 -0.79002 1.17 s-0.29 0.92332 -0.29 1.43 z"></path></g>
			</g>
		</svg>
	