<?xml version="1.0" ?><svg id="Layer_1" style="enable-background:new 0 0 48 48;" version="1.1" viewBox="0 0 48 48" xml:space="preserve" xmlns="http://www.w3.org/2000/svg" xmlns:xlink="http://www.w3.org/1999/xlink"><style type="text/css">
	.st0{fill:#FF4676;}
	.st1{fill:#0F1C70;}
	.st2{fill:#FFE92E;}
	.st3{fill:#17D5D1;}
	.st4{fill:#FFFFFF;}
	.st5{fill:#EA2461;}
	.st6{fill:#F2F2F2;}
</style><g><g><g><g><g><g><g><g><g><g><g><g><circle class="st0" cx="24" cy="24" r="24"/></g></g></g></g></g></g></g></g></g></g></g><g><g><path class="st1" d="M40.2,11.9v19.3H7.8V11.9c0-0.6,0.5-1.1,1.1-1.1h30.3C39.8,10.8,40.2,11.3,40.2,11.9z"/><rect class="st3" height="17.6" width="29.8" x="9.1" y="12.1"/><path class="st4" d="M40.2,31.1v3.4c0,0.6-0.5,1.1-1.1,1.1H27.4v2.5h1.7c0.3,0,0.6,0.3,0.6,0.6c0,0.3-0.3,0.6-0.6,0.6H18.9     c-0.3,0-0.6-0.3-0.6-0.6c0-0.3,0.3-0.6,0.6-0.6h1.7v-2.5H8.8c-0.6,0-1.1-0.5-1.1-1.1v-3.4H40.2z"/></g><g><g><polygon class="st4" points="35,26 33.8,26.7 34.4,27.3 33,28.7 32.3,28.1 31.6,29.3 29.7,24     "/></g><g><path class="st4" d="M29,23.3L29,23.3c-0.1,0.1-0.3,0.1-0.4,0L28,22.7c-0.1-0.1-0.1-0.2,0-0.3l0,0c0.1-0.1,0.2-0.1,0.3,0L29,23      C29.1,23.1,29.1,23.2,29,23.3z"/></g><g><path class="st4" d="M28.5,24.4L28.5,24.4c0,0.2-0.1,0.3-0.2,0.3h-0.9c-0.1,0-0.2-0.1-0.2-0.2l0,0c0-0.1,0.1-0.2,0.2-0.2h0.9      C28.4,24.2,28.5,24.3,28.5,24.4z"/></g><g><path class="st4" d="M29,25.5L29,25.5c0.1,0.1,0.1,0.3,0,0.4l-0.6,0.6c-0.1,0.1-0.2,0.1-0.3,0l0,0c-0.1-0.1-0.1-0.2,0-0.3      l0.6-0.6C28.7,25.4,28.9,25.4,29,25.5z"/></g><g><path class="st4" d="M31.2,23.4L31.2,23.4c-0.1-0.1-0.1-0.3,0-0.4l0.6-0.6c0.1-0.1,0.2-0.1,0.3,0l0,0c0.1,0.1,0.1,0.2,0,0.3      l-0.6,0.6C31.4,23.4,31.3,23.4,31.2,23.4z"/></g><g><path class="st4" d="M30.1,22.9L30.1,22.9c-0.2,0-0.3-0.1-0.3-0.2l0-0.9c0-0.1,0.1-0.2,0.2-0.2h0c0.1,0,0.2,0.1,0.2,0.2l0,0.9      C30.3,22.8,30.2,22.9,30.1,22.9z"/></g></g><g><g><g><circle class="st2" cx="13.5" cy="19.1" r="2.9"/></g><g><path class="st4" d="M13.5,21.4c-1.2,0-2.3-1-2.3-2.3c0-1.2,1-2.3,2.3-2.3s2.3,1,2.3,2.3C15.7,20.4,14.7,21.4,13.5,21.4z        M13.5,17.1c-1.1,0-2,0.9-2,2c0,1.1,0.9,2,2,2s2-0.9,2-2C15.5,18,14.6,17.1,13.5,17.1z"/></g><g><g><path class="st4" d="M13.3,19.9v-0.7c-0.2-0.1-0.4-0.2-0.5-0.3s-0.1-0.3-0.1-0.4c0-0.2,0.1-0.3,0.2-0.4s0.3-0.2,0.4-0.2v-0.2        h0.2v0.2c0.2,0,0.3,0.1,0.4,0.2c0.1,0.1,0.2,0.2,0.2,0.4l-0.4,0.1c0-0.1-0.1-0.2-0.2-0.3v0.6c0.3,0.1,0.4,0.2,0.5,0.3        c0.1,0.1,0.1,0.3,0.1,0.4c0,0.2-0.1,0.4-0.2,0.5c-0.1,0.1-0.3,0.2-0.5,0.2v0.3h-0.2v-0.3c-0.2,0-0.3-0.1-0.5-0.2        c-0.1-0.1-0.2-0.3-0.2-0.5l0.4,0c0,0.1,0,0.2,0.1,0.2C13.2,19.8,13.3,19.9,13.3,19.9z M13.3,18.2c-0.1,0-0.1,0.1-0.2,0.1        c0,0.1-0.1,0.1-0.1,0.2c0,0.1,0,0.1,0.1,0.2s0.1,0.1,0.2,0.1V18.2z M13.6,19.9c0.1,0,0.1-0.1,0.2-0.1c0.1-0.1,0.1-0.1,0.1-0.2        c0-0.1,0-0.1-0.1-0.2c0-0.1-0.1-0.1-0.2-0.1V19.9z"/></g></g></g><g><g><circle class="st2" cx="17.1" cy="25.8" r="2.9"/></g><g><path class="st4" d="M17.1,28c-1.2,0-2.3-1-2.3-2.3c0-1.2,1-2.3,2.3-2.3s2.3,1,2.3,2.3C19.4,27,18.4,28,17.1,28z M17.1,23.7       c-1.1,0-2,0.9-2,2c0,1.1,0.9,2,2,2s2-0.9,2-2C19.2,24.6,18.3,23.7,17.1,23.7z"/></g><g><g><path class="st4" d="M17,26.5v-0.7c-0.2-0.1-0.4-0.2-0.5-0.3c-0.1-0.1-0.1-0.3-0.1-0.4c0-0.2,0.1-0.3,0.2-0.4        c0.1-0.1,0.3-0.2,0.4-0.2v-0.2h0.2v0.2c0.2,0,0.3,0.1,0.4,0.2c0.1,0.1,0.2,0.2,0.2,0.4l-0.4,0.1c0-0.1-0.1-0.2-0.2-0.3v0.6        c0.3,0.1,0.4,0.2,0.5,0.3c0.1,0.1,0.1,0.3,0.1,0.4c0,0.2-0.1,0.4-0.2,0.5c-0.1,0.1-0.3,0.2-0.5,0.2v0.3H17v-0.3        c-0.2,0-0.3-0.1-0.5-0.2s-0.2-0.3-0.2-0.5l0.4,0c0,0.1,0,0.2,0.1,0.2C16.9,26.4,17,26.5,17,26.5z M17,24.8        c-0.1,0-0.1,0.1-0.2,0.1s-0.1,0.1-0.1,0.2c0,0.1,0,0.1,0.1,0.2c0,0,0.1,0.1,0.2,0.1V24.8z M17.3,26.5c0.1,0,0.1-0.1,0.2-0.1        s0.1-0.1,0.1-0.2c0-0.1,0-0.1-0.1-0.2s-0.1-0.1-0.2-0.1V26.5z"/></g></g></g><g><g><circle class="st2" cx="22.5" cy="15.9" r="4.4"/></g><g><path class="st4" d="M22.5,19.4c-1.9,0-3.4-1.5-3.4-3.4s1.5-3.4,3.4-3.4c1.9,0,3.4,1.5,3.4,3.4S24.4,19.4,22.5,19.4z        M22.5,12.8c-1.7,0-3.1,1.4-3.1,3.1s1.4,3.1,3.1,3.1s3.1-1.4,3.1-3.1S24.2,12.8,22.5,12.8z"/></g><g><g><path class="st4" d="M22.3,17.1v-1c-0.3-0.1-0.6-0.2-0.7-0.4c-0.1-0.2-0.2-0.4-0.2-0.7c0-0.3,0.1-0.5,0.3-0.7        c0.2-0.2,0.4-0.3,0.7-0.3v-0.2h0.4V14c0.3,0,0.5,0.1,0.6,0.3c0.2,0.1,0.3,0.3,0.3,0.6L23,14.9c0-0.2-0.1-0.3-0.3-0.4v1        c0.4,0.1,0.7,0.2,0.8,0.4c0.1,0.2,0.2,0.4,0.2,0.7c0,0.3-0.1,0.5-0.3,0.7c-0.2,0.2-0.4,0.3-0.7,0.4v0.5h-0.4v-0.4        c-0.3,0-0.5-0.1-0.7-0.3s-0.3-0.4-0.3-0.7l0.6-0.1c0,0.1,0.1,0.2,0.1,0.3C22.2,17,22.3,17,22.3,17.1z M22.3,14.5        c-0.1,0-0.2,0.1-0.2,0.2S22,14.8,22,14.9c0,0.1,0,0.2,0.1,0.2c0.1,0.1,0.1,0.1,0.2,0.2V14.5z M22.7,17.1        c0.1,0,0.2-0.1,0.3-0.2c0.1-0.1,0.1-0.2,0.1-0.3c0-0.1,0-0.2-0.1-0.3c-0.1-0.1-0.2-0.1-0.3-0.2V17.1z"/></g></g></g></g></g></g></svg>