<?xml version="1.0" encoding="utf-8"?>
<!-- Generator: Adobe Illustrator 22.0.1, SVG Export Plug-In . SVG Version: 6.00 Build 0)  -->
<svg version="1.1" id="Layer_1" xmlns="http://www.w3.org/2000/svg" xmlns:xlink="http://www.w3.org/1999/xlink" x="0px" y="0px"
	 viewBox="0 0 912.6 251" style="enable-background:new 0 0 912.6 251;" xml:space="preserve">
<style type="text/css">
	.st0{opacity:0.19;}
	.st1{fill:#DDB43F;}
</style>
<g id="Ellipse_5_xA0_Image_1_" class="st0">
</g>
<g>
	<g id="Layer_5">
		<path class="st1" d="M136.6,211.7c-47.6,0-86.3-38.7-86.3-86.3c0-47.6,38.7-86.3,86.3-86.3s86.3,38.7,86.3,86.3
			C222.9,173,184.2,211.7,136.6,211.7z M136.6,52.1c-40.4,0-73.3,32.9-73.3,73.3s32.9,73.3,73.3,73.3c40.4,0,73.3-32.9,73.3-73.3
			S177,52.1,136.6,52.1z"/>
	</g>
	<g id="Ellipse_5_copy_xA0_Image_1_">
		<g>
			<path class="st1" d="M199.8,217.6c-2.4-4.1-4.6-8-6.9-12c0.6-0.4,1-0.8,1.5-1.2c15-11.1,26-25.3,32.9-42.6
				c0.5-1.3,0.9-1.7,2.3-1.2c3.7,1.1,7.5,2,11.2,3c0.1,0,0.2,0.1,0.5,0.4C233.2,186.1,219.4,203.9,199.8,217.6z"/>
			<path class="st1" d="M224.2,82c4.1-2.3,7.9-4.6,12-6.9c10.3,20.8,14,42.6,10.9,65.7c-4.6-1.2-9-2.4-13.5-3.6
				C235.9,117.9,232.8,99.6,224.2,82z"/>
			<path class="st1" d="M113.2,234.9c1.2-4.5,2.4-8.8,3.6-13.4c18.9,3.7,37.3,2.1,55.3-4.8c2.3,4,4.6,8,7,12.1
				C157.7,237.5,135.9,239.5,113.2,234.9z"/>
			<path class="st1" d="M171,19.1c21,7,38.4,18.9,52.4,36.1c-4.2,2.4-8.1,4.7-12.2,7c-11.9-13.9-26.4-23.8-43.8-29.7
				C168.6,28.1,169.8,23.7,171,19.1z"/>
			<path class="st1" d="M54.9,179.8c5,7.4,10.8,14,17.5,19.8c6.7,5.8,14,10.5,22.1,14.4c-1.2,4.5-2.4,9-3.6,13.6
				c-20-9.1-35.8-22.6-47.9-40.8C46.9,184.4,50.8,182.2,54.9,179.8z"/>
			<path class="st1" d="M95.3,36.5c-2.3-4-4.6-7.9-7-12c18.9-8.9,38.6-12.3,59.6-10.3c-1.2,4.6-2.4,9-3.6,13.6
				C127.2,26.5,110.9,29.4,95.3,36.5z"/>
			<path class="st1" d="M32,165.7c-7.4-19.4-9.2-39.1-5.8-59.6c4.6,1.2,8.9,2.4,13.3,3.6c-0.3,2.9-0.6,5.7-0.8,8.5
				c-1.1,13.2,0.6,26.2,4.9,38.7c0.5,1.4,0.3,2.1-1,2.8c-3,1.6-5.9,3.4-8.8,5.1C33.2,165.1,32.7,165.3,32,165.7z"/>
			<path class="st1" d="M68.2,36.8c2.4,4.1,4.6,8,7,12.1C62.4,59.2,52.8,71.8,46.2,87c-4.5-1.2-8.9-2.4-13.5-3.6
				C40.5,64.7,52.2,49.2,68.2,36.8z"/>
		</g>
	</g>
	<g id="Vector_Smart_Object_xA0_Image_1_">
		<g>
			<path class="st1" d="M127.2,205.8c-2.9-0.6-5.8-1-8.6-1.7C97.8,199,82.2,187,71.8,168.3c-0.2-0.4-0.3-0.9-0.5-1.4
				c4.8,0.8,9.4,1.5,14,2.3c5.1,0.9,9.2-0.7,12.6-4.5c4-4.5,6.2-9.8,7.4-15.6c1.2-5.7,1.7-11.4,1.4-17.2c-0.1-2.2-0.3-2.2-2.4-1.7
				c-6.9,1.7-13.1,0.7-18.3-4.7c-3.6-3.7-7.6-6.9-11.4-10.4c-1.1-1-2-2.1-2.9-3.2c-1.2-1.5-0.9-2.1,0.6-3.2c0.5-0.4,1-1.3,0.8-1.8
				c-1.1-3.8,1.5-5.2,4.4-5c4.1,0.2,8.2,0.2,12.2,1.1c8.4,1.7,16.8,3.8,25.1,5.9c4.2,1.1,8.1,3.1,12.6,2.8c4.2-0.3,8.4-0.6,12.6-1.3
				c4.8-0.8,9.3-0.4,13.8,1.2c3.1,1.1,6.1,2.4,9,3.9c5.9,3.1,12.3,4.4,18.8,5.8c4,0.8,7.9,1.9,11.9,3c0.7,0.2,1.3,0.5,2.2,0.9
				c-1,1-1.8,1.9-2.6,2.7c-0.9,1-1.6,1.9-1.1,3.4s1.8,1.6,3,1.9c1.2,0.3,2.3,0.9,3.4,1.3c0.7,0.2,1.5,0.4,2.3,0.6
				c0.5,2.1-0.3,4-1.7,5.6c-3.7,4.6-8.6,7.4-14.2,8.6c-3.9,0.8-8,1-12,1.6c-1.2,0.2-2.4,0.7-3.4,1.3c-3.5,2.1-6.8,4.6-10.4,6.6
				c-7.9,4.3-15.7,3.9-23.3-0.9c-0.3-0.2-0.7-0.5-1-0.6c-0.5-0.2-1-0.2-1.5-0.3c0.2,0.5,0.2,1.3,0.6,1.6c3.1,3.1,6.8,5.3,11.1,6.5
				c0.9,0.3,1.9,0.5,3,0.7c-0.3,0.5-0.6,1-0.9,1.4c-4.3,6.3-7.3,13.4-10,20.5c-2,5.3-3.9,10.7-6,16c-0.4,0.9-1.3,1.5-2,2.3
				C128.4,205.8,127.8,205.8,127.2,205.8z M114.4,115.1c-0.8-0.2-1.2-0.4-1.6-0.5c-4.6-0.7-9.2-1.5-13.8-2.1
				c-4.1-0.5-8.2-1.1-12.4-1.3c-1.5-0.1-3.5-0.1-4.1,1.8c-0.6,1.7,0.7,3.1,1.8,4.2c3.3,3.5,7.3,6.1,11.9,7.5c2,0.6,4.5,0.9,6.4,0.2
				C107.5,123.3,110.9,119.4,114.4,115.1z M161.4,125.9c-0.3-1.9-1.2-3.5-3.1-4.4c-1.2-0.6-2.1,0-2,1.3c0.1,2,1.1,3.6,2.9,4.6
				C160.5,128,161.5,127.4,161.4,125.9z"/>
		</g>
	</g>
</g>
<g id="ROOBET">
	<g>
		<path class="st1" d="M326.5,88.4h34c9.5,0,16.7,2.6,21.6,7.5c4.1,4.1,6.3,10,6.3,17v0.3c0,12-6.4,19.5-15.9,23l18.2,26.5h-19.1
			L355.6,139h-12.8v23.7h-16.3L326.5,88.4L326.5,88.4z M359.3,124.4c7.9,0,12.5-4.2,12.5-10.5v-0.3c0-7-4.9-10.5-12.8-10.5h-16.2
			v21.3H359.3z"/>
		<path class="st1" d="M420.4,125.7v-0.3c0-21.1,16.6-38.3,39.5-38.3c22.9,0,39.4,17.1,39.4,38.2v0.3c0,21.1-16.6,38.3-39.5,38.3
			C436.8,163.9,420.4,146.8,420.4,125.7z M482.2,125.7v-0.3c0-12.8-9.3-23.3-22.5-23.3c-13.2,0-22.2,10.4-22.2,23v0.3
			c0,12.8,9.3,23.3,22.5,23.3C473,148.7,482.2,138.3,482.2,125.7z"/>
		<path class="st1" d="M531.1,125.7v-0.3c0-21.1,16.6-38.3,39.5-38.3c22.9,0,39.4,17.1,39.4,38.2v0.3c0,21.1-16.6,38.3-39.5,38.3
			C547.5,163.9,531.1,146.8,531.1,125.7z M592.8,125.7v-0.3c0-12.8-9.3-23.3-22.5-23.3c-13.2,0-22.2,10.4-22.2,23v0.3
			c0,12.8,9.3,23.3,22.5,23.3S592.8,138.3,592.8,125.7z"/>
		<path class="st1" d="M645,88.4h34.5c8.4,0,15.1,2.4,19.3,6.6c3.4,3.4,5.1,7.5,5.1,12.6v0.3c0,8.4-4.5,13-9.7,16.1
			c8.6,3.3,13.8,8.3,13.8,18.2v0.3c0,13.6-11.1,20.4-27.8,20.4H645L645,88.4L645,88.4z M676,118.3c7.2,0,11.7-2.4,11.7-7.9v-0.3
			c0-4.9-3.8-7.6-10.7-7.6H661v15.7h15V118.3z M680.3,148.2c7.2,0,11.6-2.5,11.6-8v-0.3c0-5-3.7-8-12.1-8H661v16.3H680.3z"/>
		<path class="st1" d="M742.1,88.4H798v14.5h-39.8v15h35v14.5h-35v15.5h40.3v14.5h-56.5L742.1,88.4L742.1,88.4z"/>
		<path class="st1" d="M850.9,103.5h-22.5v-15h61.5v15h-22.5v59.1H851v-59.1H850.9z"/>
	</g>
</g>
</svg>
