<?xml version="1.0" encoding="utf-8"?>
<!-- Generator: Adobe Illustrator 19.1.0, SVG Export Plug-In . SVG Version: 6.00 Build 0)  -->
<svg version="1.1" xmlns="http://www.w3.org/2000/svg" xmlns:xlink="http://www.w3.org/1999/xlink" x="0px" y="0px"
	 viewBox="0 0 132.9 51.7" style="enable-background:new 0 0 132.9 51.7;" xml:space="preserve">
<style type="text/css">
	.st0{display:none;}
	.st1{display:inline;}
	.st2{fill:#FFFFFF;}
	.st3{clip-path:url(#SVGID_2_);}
	.st4{fill:#82EB54;}
	.st5{fill:#231F20;}
</style>
<g id="Layer_2" class="st0">
	<rect x="-13.6" y="-18.9" class="st1" width="164.2" height="90.5"/>
</g>
<g id="Layer_1">
	<g>
		<g>
			<path class="st2" d="M11.4,24.6c-0.1,0.1-0.1,0.1-0.2,0.1c-0.3,0-0.4-0.2-0.4-0.5c0-0.1-0.2-0.3-0.6-0.7
				c-0.4-0.4-0.9-0.8-1.4-1.3c-0.6-0.5-1.1-1-1.7-1.5c-0.6-0.5-1.1-1-1.5-1.4c-0.9-0.9-1.7-1.8-2.6-2.7c-0.9-0.9-1.6-1.8-2.1-2.7
				c-0.1-0.2-0.3-0.4-0.6-0.7c0.1-0.1,0.1-0.1,0.1-0.2c0-0.1-0.1-0.2-0.2-0.2c0.2,0,0.3,0,0.3-0.1c-0.1-0.1-0.2-0.2-0.2-0.3
				c-0.1-0.1-0.1-0.2-0.2-0.3c0.1,0,0.2,0.1,0.3,0.2l0.2-0.2c-0.1-0.1-0.1-0.2-0.2-0.4c0.2,0,0.3,0.1,0.4,0.2
				c0.1,0.1,0.2,0.2,0.4,0.3C1.1,12.2,1,12.1,1,12.1C0.9,12,0.8,12,0.8,11.9c0-0.1,0-0.2,0.1-0.2c0.1,0,0.2-0.1,0.3-0.2
				c0.1,0.1,0.1,0.1,0.1,0.1c0,0,0,0.1,0.1,0.1c0-0.1,0-0.1,0-0.1c0,0,0,0,0-0.1c0.1,0,0.1,0,0.1,0c0,0,0.1,0,0.1,0
				c0-0.1,0.2-0.3,0.5-0.5c0.3-0.2,0.9-0.3,1.6-0.3C4.1,11,4.5,11,4.9,11.1c0.4,0,0.8,0,1.1,0c0.2,0,0.4,0,0.5-0.1
				c0.1-0.1,0.3-0.1,0.4-0.1c1.2,0,2.2,0.2,2.8,0.5c0.7,0.3,1.2,0.8,1.7,1.3c0.5,0.5,0.9,1.1,1.2,1.7c0.4,0.6,0.8,1.3,1.5,1.9
				c0.9,1.2,1.9,2.4,3.1,3.4c1.2,1,2,1.7,2.4,2.1c0.9,0.9,1.5,1.4,1.7,1.7c0.2,0.3,0.3,0.4,0.4,0.4c0-0.1,0-0.1,0.1-0.1h0.1
				c0.1,0.1,0.1,0.1,0.2,0.1c0.1-0.1,0.1-0.1,0.1-0.1c0,0,0-0.1,0.1-0.1c0,0.1,0,0.2,0,0.2c0,0,0,0.1,0,0.2c0.3-0.1,0.6-0.4,1-0.9
				c0.3-0.5,0.7-0.8,1-0.8c-0.2,0.2-0.3,0.4-0.5,0.8c-0.2,0.2-0.3,0.5-0.5,0.8c0,0.1,0,0.1,0,0.1c0,0,0,0,0,0.1
				c0.5-0.5,0.9-0.9,1.3-1.5c0.4-0.5,0.8-1,1.1-1.5c0,0.1,0,0.1,0,0.1c0,0,0,0,0,0.1c1-0.9,1.7-1.7,2.2-2.4s0.8-1.3,1-1.7
				c0.2-0.4,0.4-0.8,0.6-1c0.2-0.2,0.4-0.3,0.7-0.3c0.1,0,0.2-0.1,0.4-0.4c0.2-0.3,0.4-0.6,0.7-0.9c0.3-0.3,0.5-0.6,0.8-0.9
				c0.3-0.3,0.4-0.4,0.5-0.4c-0.1,0.1-0.2,0.2-0.3,0.4h0.2c-0.2,0.2-0.3,0.3-0.5,0.5c-0.2,0.2-0.3,0.3-0.4,0.5c0-0.1,0-0.2-0.1-0.2
				c-0.3,0.1-0.6,0.4-1,1c-0.4,0.6-0.6,0.9-0.6,0.9c-0.1,0.1-0.2,0.2-0.2,0.3c-0.1,0.1-0.1,0.2-0.2,0.3c0.2,0,0.3-0.1,0.4-0.2
				c0.1-0.1,0.2-0.3,0.3-0.4l0.1,0.1c0,0.1-0.1,0.2-0.2,0.3c-0.1,0.2-0.2,0.3-0.2,0.5c0.3-0.5,0.8-1,1.3-1.5c0.6-0.5,0.9-0.9,1-1
				c0.1,0,0.1,0,0.1,0c0,0,0.1,0,0.1,0c-0.2,0.3-0.4,0.5-0.6,0.7c-0.2,0.2-0.4,0.4-0.5,0.7c0.4-0.4,0.8-0.8,1.1-1.3
				c0.3-0.4,0.7-0.7,1-0.9l0.1,0.1c-0.3,0.3-0.5,0.5-0.7,0.8c-0.2,0.3-0.3,0.5-0.3,0.7v0.2L32,15.3c0,0.2-0.1,0.3-0.3,0.6
				c-0.2,0.2-0.4,0.5-0.7,0.7c-0.3,0.3-0.5,0.5-0.7,0.7c-0.2,0.2-0.3,0.3-0.3,0.4c0,0.1,0.1,0.2,0.2,0.2c0.3-0.4,0.6-0.7,0.7-0.9
				c0.2-0.2,0.3-0.3,0.4-0.4c0.1-0.1,0.2-0.1,0.2-0.2c0,0,0.1-0.1,0.1-0.1c-0.2,0.2-0.4,0.4-0.6,0.7c-0.2,0.3-0.4,0.6-0.5,0.8
				c0.5-0.4,0.9-0.9,1.3-1.3c0.4-0.5,0.6-0.8,0.7-1v0.1c0.1-0.2,0.3-0.3,0.6-0.5H33c-0.1,0.1-0.2,0.3-0.3,0.5h0.1
				c0.3-0.2,0.7-0.5,1.1-1c0.4-0.4,0.9-0.9,1.4-1.4c0.5-0.5,1-1,1.4-1.5c0.5-0.5,1.2-0.6,1.6-1c-0.5,0.4-1.3,0.5-1.8,0.9
				c-0.5,0.5-0.9,1-1.3,1.4c-0.4,0.5-0.8,0.8-1,1.2c-0.3,0.3-0.5,0.5-0.6,0.5c-0.1,0-0.2-0.1-0.2-0.2c0.3-0.3,0.5-0.6,0.8-0.9
				c0.3-0.4,0.6-0.7,1-0.9c-0.1,0.1-0.2,0.1-0.3,0.2c-0.1,0.1-0.2,0.2-0.3,0.3c0.2-0.1,0.3-0.2,0.5-0.3c0.2-0.2,0.3-0.3,0.3-0.4
				c-0.1,0-0.1,0-0.1,0.1c0.2-0.5,0.4-0.8,0.7-1.1c0.2-0.3,0.8-0.1,0.9-0.3c0.2-0.1,0.3-0.2,0.5-0.3c0.1-0.1,0.2-0.2,0.2-0.3
				c-0.1,0-0.2,0-0.3,0c-0.1,0,0-0.2,0-0.2c-0.1,0-0.1,0-0.1,0c0,0-0.5,0.2-0.5,0.2c-0.1,0-1.5,0.9-1.5,0.8c0-0.3,3.8-1.3,3.8-1.1
				c0.1,0,0.2,0,0.4,0c0.2,0,0.3,0,0.4,0c0.1,0,0.2,0,0.2,0.1C39.9,10.1,40,10,40,10c0.1,0-1.6,1-1.5,1c0,0,1.9-0.7,1.9-0.6
				c0.1-0.1-0.2,0.3-0.2,0.4c0.1,0.1,0.1-0.4,0.2-0.4h0.1c0.2,0,0.1-0.4,0.4-0.5c0,0.1,0.3,0.5,0.3,0.5c0,0,0,0.1,0,0.1
				c0.2-0.1,0-0.5,0.1-0.5c-0.1,0.1-0.2,0.2-0.2,0.2c0,0.1-0.1,0.1-0.2,0.2c0.2,0,0.3,0,0.5,0c0.2,0,0.3,0,0.5,0l0.1,0.2
				c0,0.1-0.1,0.2-0.2,0.4c0.2-0.1,0.4-0.2,0.7-0.2c0.3,0,0.4,0.1,0.5,0.4c0.2-0.2,0.3-0.2,0.4-0.2c0.1,0-1.5,0.9-1.4,1
				c-0.1,0.1,1.4-0.5,1.4-0.4v0.1c0.1-0.1,0.2-0.1,0.3-0.2c0.1-0.1,0.2-0.2,0.4-0.2l-0.2,0.3c0.1,0,0.2,0,0.2-0.1
				c0-0.1,0.1-0.1,0.1-0.1l0.2,0.2c0-0.1,0-0.1,0-0.1c0,0,0,0,0-0.1c0.1,0.1,0.1,0.1,0.1,0.2c0,0.1,0.1,0.1,0.1,0.2
				c0.1,0,0.1,0,0.2,0c0.1,0-2.5,2.1-2.5,2.2c0.1-0.1,3.2-2,3.2-2c0.1,0,0.2,0.1,0.2,0.2c0-0.1,0-0.1,0-0.1c0,0,0,0,0-0.1
				c0.1,0,0.2,0,0.3,0.1c0.1,0.1,0.2,0.1,0.3,0.1c0.1,0,0.1,0,0.1,0c0,0,0,0,0.1,0c0.2,0.1,0.3,0.3,0.5,0.5
				c-0.1,0.1-0.1,0.1-0.2,0.2c-0.1,0.1-0.1,0.1-0.2,0.2c0.1,0.1,0.1,0.1,0.1,0.2c0,0.4-0.1,0.8-0.3,1.1c-0.2,0.3-0.4,0.6-0.7,0.8
				c-0.2,0.3-0.4,0.5-0.7,0.6c-0.2,0.2-0.3,0.3-0.4,0.3c-1.4,1.4-2.5,2.5-3.4,3.3c-0.9,0.8-1.5,1.4-2,1.8s-0.8,0.6-0.9,0.7
				c-0.1,0.1-0.1,0.2,0,0.2c-0.6,0.4-1.2,0.9-1.7,1.5c-0.5,0.6-1,1.2-1.4,1.7c-0.4,0.6-0.7,1.1-1,1.5c-0.3,0.4-0.4,0.6-0.5,0.6
				c-0.1,0-0.1,0-0.1-0.1c-0.1-0.1-0.1-0.1-0.1-0.2c-0.4,0.7-0.7,1.1-0.8,1.3c-0.2,0.2-0.3,0.3-0.3,0.3l-0.1-0.1
				c-0.1,0.2-0.1,0.4-0.2,0.5c-0.1,0.1-0.1,0.3-0.1,0.6v0.1c-0.1,0-0.2,0.1-0.3,0.2c0.1,0,0.1,0,0.1,0c0,0,0.1,0,0.1,0
				c-0.6,0.6-1.1,1.2-1.4,2c-0.3,0.8-0.5,1.3-0.5,1.6c0,0.1,0,0.1,0.1,0.2c0,1.2-0.2,2.5-0.7,3.8c-0.5,1.4-0.9,2.7-1.1,4.1
				c-0.3,1.5-0.6,3.1-0.9,4.5c-0.3,1.5-0.2,1-0.4,2.5c0,0.3,0,0.5,0,0.6c0,0.1,0.1,0.3,0.2,0.5c-0.1,0.1-0.3,0.2-0.5,0.4l0.3,0.2
				c-0.3,0.1-0.4,0.2-0.5,0.2c-0.1,0-0.1,0.2-0.1,0.6c-0.2-0.1-0.3-0.2-0.2-0.3c0.1-0.1,0-0.2-0.1-0.4c-0.1,0-0.2,0-0.2,0.1
				c0,0.1,0,0.1,0.1,0.1c0,0.2-0.1,0.2-0.2,0.2c-0.1,0-0.1,0-0.2-0.1c-0.2,0-0.3,0.1-0.5,0.3v-0.3c-0.1,0-0.2,0-0.2,0.1
				c0,0-0.1,0.1-0.1,0.1c-0.1,0-0.1,0-0.1-0.1c0,0,0,0.1,0,0.1c0,0,0,0,0,0.1c-0.2,0-0.3-0.2-0.4-0.5c-0.1,0.1-0.1,0.1-0.2,0.1
				c-0.1,0-0.1,0-0.2,0.1c0-0.1,0-0.1,0-0.1c0,0,0-0.1,0-0.1c-0.1,0-0.5,1-0.5,1c0,0-0.1,0-0.1,0c-0.1-0.1-0.2-0.2-0.3-0.2
				c-0.1,0-0.2,0.5-0.3,0.4c0,0.1,0,0.1-0.1,0.2c-0.3-0.1-0.4,0.1-0.4-0.3c-0.1,0.2-0.2,0-0.2,0.3c0-0.1,0-0.2,0-0.2
				c0-0.1,0-0.1,0-0.2c-0.1,0.1-0.2,0.2-0.2,0.2c-0.1,0.1-0.1,0.1-0.2,0.2c0,0.1,0.1,0.1,0.2,0.2h-0.4c0.1-0.2,0.1-0.3,0.1-0.4
				c0-0.1,0-0.2,0.1-0.3c-0.2,0-0.2,0.1-0.2,0.2c0,0.1-0.1,0.2-0.3,0.2c0-0.3,0,0-0.1,0c0,0.1,0,0.1-0.1,0.1c0-0.1,0-0.1-0.1-0.2
				c0,0.1-0.1,0.2-0.2,0.3c-0.1,0.1-0.2,0.2-0.3,0.2c-0.1,0-0.2-0.1-0.2-0.2c-0.1,0.1-0.2,0.1-0.3,0.2c-0.1-0.1-0.1-0.2-0.1-0.3
				c0-0.1-0.1-0.1-0.1-0.2c-0.2,0.1-0.2,0.2-0.2,0.2c0,0.1,0,0.1,0,0.1c0,0,0,0.1,0,0.1c-0.4-0.3-0.5-0.5-0.5-0.5c0-0.1,0-0.1,0-0.1
				c0,0,0,0,0-0.1L18.9,51c-0.1,0.1-0.1,0.2-0.1,0.3c0,0.1-0.1,0.2-0.3,0.3V51c-0.1,0-0.1,0.1-0.1,0.1c0,0-0.1,0-0.1,0.1
				c0-0.1,0-0.2-0.1-0.2c0,0.1-0.1,0.1-0.2,0.1c0-0.1,0-0.1-0.1-0.2c-0.1,0.4-0.2,0.6-0.3,0.6v-0.2c-0.1-0.1-0.1-0.1-0.1-0.2V51
				l-0.2,0.3c0-0.1,0-0.2,0-0.3c0-0.1-0.1-0.2-0.2-0.2v0.6c-0.1-0.1-0.2-0.1-0.4-0.1v0.4c-0.2,0-0.3-0.1-0.5-0.4
				c-0.2-0.3-0.3-0.4-0.3-0.4c0,0.2,0,0.3,0,0.4c0,0.1-0.2,0.2-0.5,0.3c0-0.1-0.1-0.2-0.2-0.4c-0.2,0.2-0.4,0.3-0.5,0.4
				c0-0.2,0-0.3,0.1-0.3c0.1,0,0.1,0,0.1-0.1c0-0.1-0.1-0.1-0.2-0.1c-0.1,0-0.2,0-0.3,0v0.2c-0.1,0-0.2-0.1-0.2-0.2
				c0,0.2,0,0.2,0,0.3c0,0-0.1,0.1-0.2,0.2c-0.1-0.1-0.2-0.2-0.2-0.3c0-0.1-0.1-0.4-0.2-0.9c0,0.1,0,0.2,0,0.3
				c0,0.1-0.1,0.2-0.1,0.2c0-0.9,0.1-2.1,0.3-3.5c0.2-1.4,0.4-2.9,0.7-4.4c0.3-1.6,0.6-3.1,1-4.7c0.4-1.5,0.7-2.9,1-4.2
				c0.3-1.3,0.6-2.3,0.9-3c0.3-0.8,0.4-1.2,0.5-1.2c-0.4-0.5-0.7-0.9-1-1.4c-0.3-0.5-0.7-0.9-1-1.3L16,27.4
				c-0.1-0.1-0.2-0.2-0.4-0.3c0.1-0.1,0.1-0.1,0.1-0.2c0-0.1-0.1-0.3-0.3-0.6c-0.2-0.3-0.4-0.5-0.5-0.5c-0.1,0.1-0.1,0.1-0.2,0.1
				c-0.1,0-0.2-0.1-0.2-0.2s-0.1-0.2-0.2-0.2h-0.2c0,0.2,0,0.3-0.1,0.3c0.1,0.1,0.2,0.2,0.3,0.4s0.3,0.3,0.4,0.4l-0.2,0.2
				c-0.1,0-0.2-0.1-0.3-0.2c-0.1-0.2-0.3-0.3-0.4-0.5c0,0.1,0,0.1,0,0.1c0,0,0,0.1,0,0.1c-0.1-0.1-0.2-0.2-0.3-0.3s-0.2-0.2-0.3-0.3
				l-0.1,0.1c0.2,0.3,0.3,0.6,0.6,0.9c0.2,0.4,0.3,0.6,0.3,0.8c-0.6-0.7-1-1.2-1.2-1.4c-0.2-0.2-0.4-0.4-0.5-0.4
				c-0.1-0.1-0.1-0.1-0.2-0.1c0,0-0.1-0.2-0.3-0.5c0.1,0.1,0.1,0.2,0.1,0.2c0,0.1,0.1,0.1,0.2,0.1c0,0.1,0,0.1,0,0.1
				c0,0,0,0.1,0,0.1c-0.3-0.3-0.4-0.5-0.5-0.7c-0.1-0.1-0.2-0.3-0.4-0.4C11.3,24.5,11.3,24.6,11.4,24.6
				C11.4,24.6,11.4,24.6,11.4,24.6z M0.8,12.8l-0.2-0.2L0.8,12.8L0.8,12.8z M12.6,23.1c-0.2,0-0.3,0-0.4,0.1l0.2,0.2L12.6,23.1z
				 M12.9,25.2c-0.2-0.3-0.4-0.4-0.6-0.5c0.1,0.1,0.2,0.2,0.3,0.3C12.7,25.1,12.8,25.2,12.9,25.2z M12.9,23.9c0.1,0,0.1,0,0.2-0.1
				l-0.2-0.2V23.9z M13.2,24.2c0,0.5,0.1,0.7,0.3,0.7l-0.2-0.2c0.2,0,0.2-0.1,0.2-0.2c0,0.1-0.1,0-0.2-0.2l0.1-0.1L13.3,24
				C13.3,24,13.2,24.1,13.2,24.2L13.2,24.2z M13.5,25.6c-0.1-0.2-0.2-0.3-0.3-0.3L13.5,25.6z M14,25.3c-0.1-0.1-0.2-0.1-0.2-0.1
				c0,0-0.1,0-0.2-0.1c0.1,0.1,0.2,0.2,0.2,0.2c0.1,0.1,0.1,0.1,0.2,0.2C14,25.5,13.9,25.4,14,25.3L14,25.3c-0.1-0.2,0-0.3,0.1-0.4
				c-0.1,0-0.2,0-0.2-0.1c-0.1,0-0.1,0-0.1,0c0,0-0.1,0-0.1,0C13.9,25.1,14,25.2,14,25.3z M14.7,21L14.7,21
				c-0.1-0.2-0.2-0.3-0.2-0.3C14.6,20.8,14.7,20.9,14.7,21z M15.1,21.3c0,0.2,0.1,0.2,0.2,0.2L15.1,21.3z M15.3,20.8l0.2,0.2
				c0.1,0,0.1,0,0.1-0.1L15.3,20.8L15.3,20.8z M16.1,21.5c0,0.1,0,0.2,0.1,0.2c0.1,0,0.1,0,0.2,0.1L16.1,21.5z M16.3,25.2
				c-0.1,0.1-0.1,0.1-0.1,0.2l0.2,0.2c0.1,0.1,0.2,0.2,0.3,0.2c-0.1-0.2-0.3-0.4-0.6-0.7C16.1,25.1,16.2,25.2,16.3,25.2z M16.3,51.4
				c0.1-0.1,0.1-0.1,0.1-0.2c-0.1,0-0.1,0-0.1-0.1V51.4z M16.6,21.9L16.6,21.9c0,0.1,0.1,0.2,0.2,0.3l0.1-0.1L16.6,21.9z M16.6,51.4
				c0.2,0,0.2,0,0.2-0.1c0-0.1,0-0.2,0-0.2c0,0,0-0.1,0-0.2C16.7,51.1,16.7,51.3,16.6,51.4z M17.2,27.1
				C17.3,27.1,17.3,27.1,17.2,27.1c0-0.2-0.1-0.3-0.2-0.5C17,26.8,17.1,27,17.2,27.1z M17.6,24.3c0.1,0.1,0.1,0.1,0.1,0.1
				c0,0,0,0.1,0.1,0.1l0.1-0.1C17.7,24.5,17.7,24.4,17.6,24.3z M17.9,27.8c0-0.2-0.1-0.3-0.3-0.3c0.1,0.1,0.1,0.1,0.1,0.2
				C17.7,27.7,17.8,27.7,17.9,27.8z M17.9,47.7c-0.1,0-0.1,0.1-0.1,0.2V48C17.8,48,17.9,47.9,17.9,47.7z M18,23.4L18,23.4
				c0.1,0.2,0.2,0.2,0.2,0.2L18,23.4z M18.2,26L18.2,26c0-0.1,0-0.2,0-0.2c0-0.1-0.1-0.1-0.3-0.1L18.2,26z M18.2,24.3L18.2,24.3
				l0.1,0.2c0-0.1,0-0.1,0-0.1C18.2,24.3,18.2,24.3,18.2,24.3z M18.1,46.3c0.1-0.1,0.2-0.3,0.2-0.5c0-0.2,0.1-0.4,0.1-0.7
				c-0.1,0-0.2,0.2-0.2,0.5C18.2,46,18.1,46.2,18.1,46.3z M18.6,25.4c-0.1-0.1-0.2-0.2-0.2-0.3l-0.1,0.1L18.6,25.4L18.6,25.4z
				 M18.4,46.1c0.2,0,0.2-0.3,0.2-0.8c-0.1,0-0.1,0.1-0.1,0.3C18.5,45.9,18.4,46,18.4,46.1z M18.6,43.6c0.1,0,0.2-0.1,0.2-0.4
				c-0.1,0.1-0.1,0.1-0.1,0.2C18.6,43.5,18.6,43.5,18.6,43.6z M18.8,44.1v0.3c0.1-0.1,0.1-0.1,0.1-0.2L18.8,44.1
				c0.1-0.1,0.2-0.1,0.2-0.2v-0.1c-0.1-0.1-0.1-0.1-0.1-0.2c0.1,0,0.2-0.1,0.2-0.2v-0.2C18.9,43.6,18.8,43.9,18.8,44.1z M18.9,42.1
				c0.1,0,0.1-0.1,0.1-0.3c0,0.1,0,0.1,0,0.1C18.9,41.9,18.9,42,18.9,42.1z M19.3,25.2c-0.1-0.1-0.2-0.2-0.3-0.4
				C19,25,19.1,25.1,19.3,25.2z M19.4,45.7c-0.1,0.1-0.2,0.2-0.2,0.2c0,0.1,0,0.2,0.1,0.2C19.4,46.1,19.4,45.9,19.4,45.7z
				 M19.3,41.4c0,0.2,0,0.2,0,0.2c0,0,0,0,0.1,0c0,0,0-0.1,0-0.1C19.3,41.5,19.3,41.5,19.3,41.4z M19.6,25.1
				C19.6,25.2,19.5,25.2,19.6,25.1c0,0.1,0.1,0.1,0,0.2c0,0.1,0,0.1,0.1,0.1c-0.1-0.1-0.1-0.1-0.1-0.1
				C19.6,25.2,19.6,25.2,19.6,25.1z M19.5,44.6c0.1,0,0.1-0.1,0.1-0.2C19.5,44.3,19.5,44.4,19.5,44.6z M20,26
				c-0.1-0.2-0.3-0.4-0.5-0.5c0.1,0.1,0.2,0.2,0.2,0.2C19.8,25.8,19.9,25.9,20,26z M19.6,45.8C19.6,45.9,19.7,45.9,19.6,45.8
				c0.1,0,0.1-0.1,0.1-0.2c0-0.1,0-0.2,0-0.3C19.6,45.5,19.6,45.6,19.6,45.8L19.6,45.8z M19.7,41.7c-0.1,0-0.1,0.1-0.1,0.2V42
				C19.7,42,19.7,41.9,19.7,41.7z M19.8,47.3L19.8,47.3c-0.1,0-0.2,0-0.2,0.1v0.2c0,0.1,0,0.1,0.1,0.2c0-0.1,0-0.2,0-0.2
				C19.8,47.5,19.8,47.4,19.8,47.3z M19.8,39.3c0,0.2,0,0.3,0.1,0.2C19.8,39.5,19.8,39.4,19.8,39.3c0-0.1,0-0.1,0-0.1
				c0,0,0-0.1,0-0.1c0-0.1,0-0.1-0.1-0.1V39.3z M20.3,44.1c-0.1,0.3-0.2,0.5-0.2,0.7c0,0.1,0,0.2,0,0.2c0,0,0,0.1,0,0.1
				c0-0.1,0.1-0.2,0.2-0.5c0,0.2,0,0.3,0,0.3c0,0.1,0,0.2,0,0.3c0-1.5,0.2-2.8,0.7-4c0.5-1.2,0.7-2.2,0.7-3c0-0.1,0-0.2-0.1-0.2
				c-0.2,0.2-0.3,0.3-0.2,0.3c0.1-0.3,0.2-0.5,0.2-0.7c0-0.2,0.1-0.5,0.1-0.7c-0.1,0.1-0.2,0.4-0.3,1c-0.1,0.5-0.2,0.9-0.3,1
				c0-0.2,0-0.3,0.1-0.5c0.1-0.2,0.1-0.4,0.1-0.7c0-0.1,0-0.2,0-0.2c0-0.1,0-0.1,0-0.2c-0.3,0.6-0.4,1.1-0.5,1.7
				c-0.1,0.6-0.2,0.8-0.3,0.8c0,0.9-0.1,1.8-0.4,2.8c-0.3,1-0.4,1.8-0.4,2.3c0.1-0.1,0.1-0.3,0.3-0.7c0.1-0.4,0.2-0.7,0.2-0.8
				c-0.1-0.1-0.1-0.1-0.1-0.2c0-0.9,0.2-1.7,0.5-2.4c0.3-0.7,0.5-1.1,0.5-1.2c0,0.7-0.1,1.5-0.3,2.4C20.7,42.7,20.5,43.5,20.3,44.1z
				 M19.9,46.4c-0.1,0.1-0.1,0.2-0.1,0.4v-0.1c0.1,0,0.1-0.1,0.1-0.2c0-0.1,0-0.2,0.1-0.3c0-0.1,0-0.2-0.1-0.2
				c0.1,0,0.2-0.1,0.2-0.3v-0.3c0,0.2,0,0.4-0.1,0.5C20,46,19.9,46.2,19.9,46.4z M20.1,38c-0.1,0.1-0.2,0.2-0.2,0.4
				c0,0.1,0,0.2,0.1,0.2C20,38.3,20,38.1,20.1,38z M20.2,39.6c-0.1,0-0.1,0.1-0.1,0.2C20.1,39.8,20.2,39.7,20.2,39.6z M20.2,39.4
				c0.1,0,0.2-0.1,0.2-0.2s0-0.3,0.1-0.4c-0.1,0.1-0.2,0.1-0.2,0.3S20.2,39.3,20.2,39.4z M20.2,46c0.1,0,0.1-0.1,0.1-0.2
				c0-0.1,0-0.2,0.1-0.3c-0.1,0-0.1,0.1-0.1,0.2C20.2,45.8,20.2,45.9,20.2,46z M20.3,37c-0.1,0.1-0.1,0.1-0.1,0.2
				C20.3,37.2,20.3,37.1,20.3,37z M20.6,47.7c-0.1,0.1-0.1,0.2-0.1,0.4c0-0.2,0-0.3,0.1-0.5l0.2-0.6c0-0.1,0-0.1-0.1-0.2
				c0,0.2,0,0.4,0,0.5C20.6,47.5,20.6,47.6,20.6,47.7z M20.8,37c-0.1,0.1-0.2,0.2-0.2,0.5c0.1-0.1,0.1-0.2,0.1-0.2
				C20.7,37.2,20.7,37.1,20.8,37z M21.2,44.4L21.2,44.4c0,0,0,0.1,0,0.2c0,0.1,0,0.2,0,0.3c0,0.2,0.1,0.3,0.2,0.4
				c-0.1,0.5-0.2,1-0.3,1.6c-0.1,0.6-0.2,1.1-0.3,1.3c0.2,0,0.3-0.4,0.4-1.1c0.1-0.7,0.2-1.2,0.4-1.5c0.1,0.1,0.1,0.2,0.1,0.4
				c0,0.2,0,0.3,0,0.5c0.1-0.2,0.2-0.5,0.3-0.9c0.1-0.5,0.2-0.7,0.2-0.8c0-0.1,0-0.1,0-0.1c0,0,0-0.1,0-0.1c0-0.9,0.1-1.7,0.4-2.6
				c0.3-0.8,0.4-1.6,0.4-2.3c-0.1,0.2-0.2,0.3-0.2,0.4c0-0.7,0.1-1,0.2-1c0.2,0,0.2-0.2,0.2-0.5c-0.3,0.3-0.5,0.8-0.7,1.3
				c-0.2,0.6-0.2,1-0.2,1.3c0.1,0.1,0.1,0.1,0.1,0.2c0.1-0.2,0.2-0.4,0.2-0.6l0.1,0.1c-0.1,0.1-0.1,0.3-0.1,0.5
				c0,0.2-0.1,0.4-0.1,0.6c-0.1-0.1-0.1-0.2-0.1-0.4c-0.1,1-0.3,2-0.5,2.8c0-1,0.1-2,0.3-3c0.2-0.9,0.3-1.7,0.3-2.3
				c0-0.3,0-0.6,0.1-1c0.1-0.4,0.2-0.7,0.3-1c-0.3,0.3-0.4,0.7-0.5,1.2c-0.1,0.5-0.1,1-0.2,1.3v0.4c0,0.6-0.1,1.1-0.3,1.6
				c-0.2,0.5-0.3,1-0.3,1.5c0,0.1,0.1,0.2,0.2,0.2c0,0.2-0.1,0.3-0.2,0.3l-0.1-0.1c-0.1,0.2-0.2,0.4-0.2,0.5
				c-0.1-0.1-0.1-0.2-0.1-0.3c0-0.1,0-0.2-0.1-0.3C21,43.5,21,43.5,21,43.5c0,0,0,0.1-0.1,0.2c0,0.1,0.1,0.1,0.2,0.1
				c0.1,0,0.1,0,0.1,0.1C21.1,44,21,44.1,21,44.3C21,44.4,21.1,44.4,21.2,44.4z M20.9,46.4c0.1,0,0.1-0.1,0.1-0.2h-0.1V46.4z
				 M21.1,43c0.2,0,0.2-0.3,0.2-0.7c0,0.1-0.1,0.2-0.2,0.3c-0.1,0.1-0.2,0.2-0.2,0.3C21,42.9,21,43,21.1,43C21.1,43,21.1,43,21.1,43
				z M21.3,47.4L21.3,47.4v-0.2V47.4z M21.6,41.2c-0.1,0-0.1,0.1-0.1,0.2C21.6,41.4,21.6,41.3,21.6,41.2z M22.1,39.3
				c-0.2,0-0.2,0-0.2,0.1c0,0.1,0,0.1-0.1,0.1c0.1,0,0.1,0,0.2,0.1C21.9,39.6,22,39.5,22.1,39.3z M22.1,36c-0.1,0-0.1,0,0,0.1
				c0,0.1,0,0.1,0,0.2l0.1,0.1V36z M22.1,38.8L22,39c0,0.1,0,0.2,0.1,0.2V38.8z M23.3,40.8c0-0.4,0.1-0.7,0.2-0.9
				c-0.1,0-0.2,0.1-0.2,0.4c-0.1,0.3-0.1,0.5-0.1,0.6C23.2,40.9,23.2,40.9,23.3,40.8C23.2,40.8,23.3,40.8,23.3,40.8
				C23.3,40.9,23.3,40.9,23.3,40.8c0.1,0.1,0.1,0.1,0.1,0.2c-0.2,0.3-0.3,0.5-0.3,0.8s-0.1,0.6-0.2,0.8c0-0.2,0-0.3-0.1-0.4
				c-0.1-0.1-0.1-0.2-0.2-0.4c0,0.2-0.1,0.4-0.2,0.7c-0.1,0.2-0.1,0.3-0.1,0.5c0.2-0.2,0.2-0.2,0.2-0.2c0-0.1,0-0.1,0-0.1
				c0,0,0,0,0-0.1c0.1,0.1,0.1,0.2,0.2,0.2c0.1,0,0.1,0.1,0.1,0.2c-0.1,0.2-0.1,0.4-0.2,0.7c-0.1,0.3-0.1,0.5-0.2,0.5
				c0-0.1,0-0.3,0-0.5c0-0.2,0-0.4-0.1-0.5c-0.1,0.1-0.2,0.3-0.2,0.6c0,0.3,0,0.5,0,0.6c0-0.1,0-0.2,0-0.2c0,0,0-0.1,0-0.2
				c0.2,0,0.2,0.1,0.2,0.3c0,0.2,0.1,0.3,0.2,0.4c-0.1,0.1-0.2,0.4-0.2,0.9c0.1-0.1,0.2-0.2,0.2-0.2c0-0.1,0.1-0.1,0.1-0.2v0.1
				c0-0.2,0-0.4,0.1-0.5c0.1-0.1,0.1-0.3,0.1-0.7c0.1,0.3,0.2,0.4,0.2,0.4c-0.1,0.3-0.2,0.7-0.2,1.1c-0.1,0.4-0.1,0.7-0.1,0.8
				l0.1,0.1c0-0.2,0-0.3,0.1-0.5c0.1-0.2,0.1-0.3,0.1-0.4c0-0.1,0-0.2,0-0.2c0-0.1,0-0.1,0-0.2c0.1,0,0.2-0.1,0.2-0.2
				c0-0.2,0.1-0.3,0.1-0.4c0,0.8-0.1,1.6-0.4,2.4c-0.3,0.8-0.4,1.6-0.4,2.4c0,0.2,0.1,0.4,0.2,0.5c0.4-2.2,0.8-4.3,1.3-6.4
				c0.4-2.1,0.8-4,1.1-5.8c-0.1,0-0.1,0.1-0.1,0.2c-0.1-0.1-0.1-0.2-0.1-0.3c-0.4,1.3-0.7,2.5-0.8,3.6c-0.2,1.1-0.4,2.2-0.7,3.5
				c0-0.3,0-0.7,0.1-1.2c0.1-0.5,0.2-1,0.3-1.3c-0.2,0.3-0.2,0.5-0.2,0.8s-0.1,0.5-0.2,0.7c-0.1,0-0.2-0.1-0.2-0.2
				c0.3-1.1,0.4-1.8,0.4-1.9c-0.1-0.2,0-0.2,0.2-0.2c0,0.1,0,0.2,0,0.3c0,0.1,0,0.2,0,0.3c0,0.1,0,0.2,0.1,0.2
				c0.1-0.1,0.1-0.2,0.1-0.3c0-0.1,0-0.2,0.1-0.3c-0.2-0.1-0.2-0.1-0.2-0.2c0.1-0.1,0-0.2-0.2-0.3c0,0.3-0.1,0.6-0.2,0.8
				c0-0.1,0-0.2,0-0.2c0-0.1,0-0.1,0-0.2c0-0.1,0-0.2,0-0.2C23.4,41,23.4,40.9,23.3,40.8L23.3,40.8z M22.5,50.1L22.5,50.1
				c0.1-0.3,0-0.4-0.1-0.4c0,0.1,0,0.2,0,0.2C22.5,50,22.5,50,22.5,50.1z M22.6,43.6L22.6,43.6c0,0,0,0,0-0.1s-0.1-0.1-0.2-0.1
				C22.5,43.5,22.6,43.6,22.6,43.6z M22.6,47.8c0.1,0,0.1-0.1,0.1-0.2C22.6,47.6,22.6,47.7,22.6,47.8z M22.9,36.6c0,0,0-0.1,0.1-0.2
				l-0.1-0.1l-0.2,0.3l0.1,0.2C22.8,36.7,22.9,36.6,22.9,36.6z M23,40.5L23,40.5c-0.1,0.2,0,0.2,0.1,0.2c0,0,0-0.1,0-0.1
				C23,40.6,23,40.6,23,40.5z M23.3,37.7c-0.2,0.1-0.3,0.1-0.3,0.2l0.2,0.1C23.2,37.8,23.2,37.8,23.3,37.7z M23.3,36.9L23.3,36.9
				c-0.1,0-0.1,0.1-0.1,0.1c0,0,0,0.1,0,0.2c0.1,0,0.1,0,0.1-0.1S23.3,36.9,23.3,36.9z M23.4,40.7c0.1-0.1,0.2-0.2,0.2-0.3
				c0-0.2,0-0.3,0.1-0.4c-0.1,0.1-0.2,0.2-0.2,0.3C23.5,40.4,23.5,40.5,23.4,40.7z M23.9,38.4c-0.1,0.2-0.2,0.3-0.2,0.4
				c0,0.1,0,0.2,0.1,0.2c-0.1,0-0.2,0.1-0.2,0.2c0,0.1,0,0.2,0,0.3c0.1-0.1,0.2-0.3,0.3-0.5c0.1-0.2,0.1-0.4,0.1-0.5L23.9,38.4
				c0,0,0-0.1,0.1-0.2L23.9,38.4L23.9,38.4L23.9,38.4z M23.9,40.3c-0.1,0-0.2,0.1-0.2,0.2C23.8,40.4,23.9,40.4,23.9,40.3z
				 M23.9,39.8c-0.1,0-0.1,0-0.1,0.1c0,0.1,0,0.1,0,0.1l0.1,0.1C23.9,39.9,23.9,39.9,23.9,39.8z M23.9,46.6c0-0.3,0-0.4,0.1-0.5
				l-0.2,0.3C23.8,46.5,23.8,46.5,23.9,46.6z M23.9,39.3c0.1,0,0.1,0,0.1-0.1c0-0.1,0-0.1,0-0.2L24,39c0,0.1,0,0.2,0,0.2
				C24,39.2,23.9,39.3,23.9,39.3z M24.2,44.3c0.1,0,0.1-0.1,0.1-0.2c0,0.1,0,0.1,0,0.1C24.2,44.3,24.2,44.3,24.2,44.3z M24.3,39.3
				c0-0.2,0-0.3-0.1-0.3c0,0.1,0,0.2,0,0.2C24.3,39.1,24.3,39.2,24.3,39.3z M24.6,22.8c-0.1,0-0.2,0.1-0.2,0.2L24.6,22.8z
				 M24.9,23.6c-0.1,0.1-0.2,0.3-0.3,0.6c0.1-0.1,0.2-0.2,0.3-0.4c0.1-0.2,0.2-0.3,0.2-0.4v-0.1C25,23.3,25,23.2,25,23.2
				c-0.1,0.1-0.1,0.2-0.1,0.2C24.9,23.5,24.9,23.5,24.9,23.6z M24.6,42.4v0.2V42.4C24.6,42.5,24.6,42.5,24.6,42.4z M25.2,24.9
				c-0.2,0.1-0.3,0.2-0.3,0.3c-0.1,0.1-0.2,0.2-0.3,0.3v0.1c0.4-0.5,0.8-1,1.1-1.3c0.3-0.4,0.5-0.6,0.5-0.7c-0.3,0-0.5,0.2-0.7,0.7
				C25.4,24.8,25.2,25,25.2,24.9z M24.9,41.1c-0.2,0.2-0.2,0.4-0.2,0.8V42L24.9,41.1z M25.6,21.3c0.1,0,0.2,0,0.2-0.1
				c0-0.1,0-0.1,0.1-0.2L25.6,21.3z M25.9,21.4c0.1,0,0.2,0,0.2-0.1c0-0.1,0-0.1,0.1-0.2L25.9,21.4z M26.1,22.6c0.2,0,0.2,0,0.2,0
				c0,0,0.1-0.1,0.2-0.2c-0.1,0.1-0.2,0.1-0.2,0.1C26.3,22.6,26.2,22.6,26.1,22.6z M26.8,21.3c0-0.1,0-0.2,0.1-0.2
				c-0.1,0-0.1,0-0.1-0.1c-0.1,0.2-0.3,0.4-0.5,0.6c0.2,0,0.3-0.1,0.4-0.2v0.1C26.7,21.6,26.8,21.5,26.8,21.3z M27.3,22.3
				c0.2-0.3,0.4-0.5,0.5-0.7c0.1-0.2,0.3-0.4,0.6-0.7c-0.1,0-0.3,0.2-0.7,0.5c-0.3,0.4-0.5,0.6-0.5,0.7
				C27.3,22.2,27.3,22.3,27.3,22.3C27.3,22.3,27.3,22.3,27.3,22.3c-0.1,0-0.3,0.1-0.5,0.4c-0.2,0.3-0.4,0.5-0.5,0.8
				c0.2-0.2,0.4-0.4,0.5-0.6C27.1,22.7,27.2,22.5,27.3,22.3z M26.9,21.9c-0.2,0.1-0.3,0.2-0.3,0.3c0.1-0.1,0.2-0.1,0.2-0.2
				C26.9,22,26.9,21.9,26.9,21.9z M26.9,22.3c-0.1,0-0.2,0.1-0.2,0.2C26.8,22.5,26.9,22.4,26.9,22.3z M27.7,22.4l-0.4,0.4h0.1
				c0.1,0,0.2,0,0.2-0.1c0,0.7-0.1,1.1-0.4,1.2c-0.3,0.1-0.4,0.2-0.4,0.2c0.6-0.6,1-0.9,1.2-1.2c0.2-0.2,0.4-0.4,0.6-0.6
				c-0.1-0.1-0.2-0.1-0.3-0.1l0.2-0.5c0-0.1,0-0.1-0.1-0.1c-0.1,0.1-0.2,0.2-0.2,0.3c-0.1,0.1-0.1,0.2-0.2,0.3v-0.2
				C27.9,22.2,27.8,22.3,27.7,22.4z M27.1,20C27,20,27,20,27.1,20c-0.1,0-0.1,0.1-0.2,0.1l0.1,0.1L27.1,20z M27.1,20.7
				C27,20.8,27,20.8,27,20.8c0,0,0,0.1-0.1,0.1H27c0-0.1,0-0.1,0-0.1C27.1,20.8,27.1,20.8,27.1,20.7z M27.6,20.9
				c0.2-0.2,0.3-0.3,0.5-0.5c0.2-0.2,0.3-0.4,0.4-0.6c-0.4,0.1-0.7,0.4-0.9,0.9c-0.2,0.5-0.4,0.8-0.5,0.8v-0.1l0.1,0.1
				c0.1-0.1,0.2-0.2,0.2-0.3C27.4,21.2,27.5,21,27.6,20.9z M27.4,20.3L27.4,20.3c0,0.1,0,0.2,0,0.2c0,0,0,0,0,0.1
				c0.3-0.2,0.4-0.3,0.4-0.3l-0.1-0.1l0.2-0.2c0.1-0.1,0.1-0.1,0.1-0.1c0,0,0-0.1,0.1-0.1c0-0.1,0-0.1-0.1-0.1
				c-0.1,0.1-0.2,0.2-0.2,0.3C27.6,20,27.5,20.2,27.4,20.3z M29.9,21.6c-0.3,0.6-0.7,1.1-1.2,1.5c-0.5,0.4-0.8,0.9-1.1,1.3
				c0,0.1,0,0.1,0.1,0.1c0.1-0.3,0.3-0.6,0.5-0.8c0.2-0.2,0.4-0.3,0.5-0.3c0,0.2,0,0.2-0.1,0.3c-0.1,0-0.2,0.1-0.3,0.3
				c0.2-0.2,0.2-0.2,0.3-0.2c0,0,0.1-0.1,0.3-0.2c-0.2,0.3-0.3,0.5-0.4,0.7c-0.1,0.2-0.3,0.3-0.4,0.5c0.4-0.3,0.7-0.6,1-0.9
				c0.3-0.4,0.6-0.7,0.8-1v0.2c0,0.1,0,0.1-0.1,0.2l0.1,0.1c0-0.2,0.1-0.3,0.3-0.3c-0.1,0-0.1,0-0.1,0.1c0,0.1,0.1,0.2,0.2,0.2
				c-0.3,0.3-0.6,0.7-1,1.3c-0.4,0.6-0.6,0.9-0.6,0.9c0,0.1,0,0.1,0.1,0.1c0.3-0.7,0.6-1.2,1.2-1.6c0.5-0.4,0.8-0.6,0.8-0.7
				c-0.1,0-0.2,0.2-0.4,0.5c-0.2,0.3-0.5,0.7-0.7,1.1c-0.2,0.4-0.5,1-0.9,1.6c0.1-0.3,0.4-0.7,0.8-1.2c0.4-0.6,0.8-1.1,1.3-1.7
				c0.4-0.6,0.8-1.1,1.2-1.5c0.4-0.4,0.6-0.7,0.7-0.7c1-1,2-2,3-3.2c0.9-1.1,4.3-3.5,5.1-4.5c-0.3,0-2.9,1.4-3,1.6
				c-0.2,0.2-0.4,0.4-0.6,0.7h0.2c-0.1,0.1-0.1,0.1-0.1,0.2c0,0.1-0.1,0.1-0.1,0.2c-0.1,0.1-0.1,0.1-0.1,0.2c0,0.1,0,0.1,0.1,0.1
				c-0.1-0.1-0.2-0.2-0.3-0.2c-0.7,0.6-1.1,1-1.2,1.2c-0.2,0.2-0.3,0.3-0.3,0.3c0.1-0.4,0.3-0.7,0.6-1c0.3-0.3,0.6-0.6,1-0.8
				c0.3-0.3,0.6-0.5,0.9-0.7c0.3-0.2,0.4-0.5,0.4-0.8c-0.1,0-0.1,0-0.1,0.1c0.2-0.3,0.4-0.5,0.5-0.6c-0.5,0.1-0.9,0.4-1.2,0.8
				c-0.3,0.4-0.5,0.7-0.5,0.7l-0.2-0.2c0.4-0.4,0.9-0.8,1.5-1.3c0.6-0.5,0.9-1,1.2-1.3c-0.1,0-0.1,0-0.1-0.1
				c-0.2,0.2-0.5,0.4-0.8,0.8c-0.3,0.4-0.7,0.8-1.1,1.2c-0.4,0.4-0.7,0.7-1,1c-0.3,0.3-0.5,0.5-0.7,0.5v0.1c0-0.2,0.2-0.5,0.5-0.9
				c0.3-0.4,0.7-0.8,1.2-1.2c0.4-0.4,0.8-0.7,1.2-1c0.4-0.3,0.6-0.5,0.7-0.5c0.1-0.1,0.2-0.2,0.3-0.3c0.1-0.1,0.2-0.2,0.2-0.3
				c-0.6,0.5-1.1,1-1.7,1.5c-0.5,0.5-1,0.9-1.5,1.4c0.1-0.3,0.3-0.7,0.7-1c0.4-0.4,0.6-0.6,0.6-0.7h-0.1c0.3-0.2,0.4-0.3,0.5-0.3
				c0.1,0,0.2-0.1,0.2-0.4c0,0.1-0.3,0.3-0.9,0.9c-0.6,0.5-1.1,1-1.5,1.3c0-0.2,0-0.3,0.1-0.3l-0.3,0.2c0-0.1,0-0.1-0.1-0.2
				c0.3-0.3,0.5-0.5,0.6-0.7c0.2-0.2,0.3-0.4,0.4-0.5c-0.3,0.1-0.5,0.3-0.5,0.5c-0.1,0.2-0.3,0.3-0.6,0.3c0.7-0.6,1.3-1.2,1.8-1.9
				c0.5-0.6,1.1-0.6,1.2-0.6v0.2c-0.1-0.1-0.1-0.1-0.2-0.1c-0.1,0-0.1,0-0.2,0.1c-0.1,0.1-0.1,0.1-0.2,0.1c-0.1,0-0.1,0-0.1,0.1
				l0.1-0.1c-0.6,0.6-1.5,0.8-1.9,1.3c-0.4,0.5-0.8,0.9-1.2,1.3c-0.4,0.4-0.8,0.9-1.3,1.4c-0.5,0.5-1,1.1-1.7,1.7
				c0,0.1,0,0.1,0.1,0.1c0.2-0.3,0.4-0.5,0.5-0.7c0,0.2-0.1,0.4-0.3,0.7c-0.2,0.3-0.4,0.6-0.7,0.8c-0.3,0.3-0.5,0.5-0.7,0.7
				c-0.2,0.2-0.4,0.3-0.4,0.3c-0.3,0.1-0.4,0.3-0.4,0.5c0.1,0,0.1,0,0.1,0c0,0,0.1,0,0.1,0c-0.2,0.3-0.4,0.5-0.7,0.8
				c-0.3,0.3-0.5,0.6-0.5,0.8c0.1-0.1,0.1-0.2,0.2-0.3c0.1-0.1,0.2-0.2,0.3-0.2c-0.1,0.1-0.1,0.2-0.2,0.2c-0.1,0.1-0.1,0.1-0.1,0.2
				v0.1c0.2-0.2,0.4-0.4,0.7-0.7c0.3-0.3,0.5-0.6,0.8-1c0.2-0.3,0.5-0.8,0.9-1.3c0.2,0,0.3-0.1,0.5-0.3c0.2-0.2,0.4-0.4,0.5-0.7
				c0.2-0.3,0.3-0.5,0.5-0.7c0.2-0.2,0.3-0.3,0.5-0.3c0,0.1,0,0.2-0.1,0.3c-0.1,0.1-0.1,0.2-0.1,0.3v0.1c-0.5,0.5-0.8,0.8-1,1
				c-0.2,0.2-0.3,0.3-0.4,0.4c-0.1,0.1-0.1,0.1-0.1,0.2c0,0.1-0.1,0.2-0.2,0.3c0-0.1,0-0.1,0-0.1c0,0,0,0,0-0.1
				c-0.2,0.2-0.4,0.4-0.5,0.5l0.3-0.2c0,0.2-0.1,0.4-0.3,0.7c-0.2,0.3-0.4,0.6-0.7,0.9c-0.3,0.3-0.6,0.6-1,1
				C29.9,21.5,29.9,21.5,29.9,21.6z M28.3,26.8L28.3,26.8c0.1,0,0.2-0.1,0.3-0.2c0-0.1,0-0.1-0.1-0.1c-0.1,0.1-0.1,0.1-0.1,0.2
				C28.3,26.7,28.3,26.7,28.3,26.8z M32.6,15.6c-0.6,0.9-1.2,1.6-1.8,2.3c-0.6,0.6-1.2,1.5-2,2.4c-0.2,0.2-0.3,0.4-0.4,0.6
				c0.3-0.3,0.7-0.6,1.2-1.1c0.5-0.5,0.9-1,1.4-1.5c0.5-0.5,0.9-1,1.2-1.5c0.3-0.5,0.5-0.8,0.5-1C32.6,15.7,32.6,15.6,32.6,15.6z
				 M28.8,18.6l-0.2,0.2l0.1,0.1c0.3-0.2,0.5-0.3,0.6-0.5c0.1-0.2,0.1-0.3,0.1-0.4l-0.1-0.2c0.1,0,0.1,0,0.1,0.1
				c-0.1,0.1-0.2,0.2-0.3,0.3C29,18.3,28.9,18.5,28.8,18.6z M28.6,19.5c0.2,0,0.5-0.2,0.8-0.7c0.3-0.4,0.6-0.7,0.7-0.9
				c-0.1,0-0.2,0.1-0.4,0.2c-0.2,0.2-0.3,0.3-0.5,0.5c-0.2,0.2-0.3,0.3-0.3,0.5c-0.1,0.1-0.1,0.2,0,0.1L28.6,19.5z M28.9,21.7
				c-0.2,0.2-0.2,0.3-0.2,0.3c0,0.1,0,0.1,0.1,0.2c0-0.1,0-0.2,0.1-0.2C28.8,21.9,28.9,21.8,28.9,21.7z M28.6,27.5
				c0.1-0.1,0.2-0.1,0.2-0.2C28.7,27.4,28.6,27.4,28.6,27.5z M29.6,23.5c-0.1,0.1-0.1,0.1-0.1,0.1c0,0-0.1,0-0.1,0.1
				c0.1,0,0.1,0,0.1,0.1c0.2-0.2,0.2-0.3,0.2-0.5C29.6,23.2,29.6,23.3,29.6,23.5z M29.4,26.6L29.4,26.6l0.2-0.2l-0.1-0.1
				C29.5,26.4,29.4,26.5,29.4,26.6z M29.5,18.9L29.5,18.9c0.1,0,0.2-0.1,0.2-0.1c0,0,0.1-0.1,0.1-0.2c-0.1,0-0.2,0-0.2,0.1
				C29.6,18.8,29.5,18.9,29.5,18.9z M30.6,16.5c-0.3,0.2-0.5,0.3-0.6,0.5c-0.2,0.2-0.3,0.4-0.4,0.5c0.2-0.1,0.4-0.3,0.5-0.5
				C30.3,16.9,30.5,16.7,30.6,16.5z M29.8,26.2c0.1-0.2,0.2-0.4,0.3-0.5C29.9,25.7,29.8,25.9,29.8,26.2z M31,23.6
				c0,0.1,0,0.1,0.1,0.2L31,23.6c-0.1,0.1-0.1,0.2-0.2,0.3c0.2-0.1,0.3-0.2,0.2-0.2c-0.5,0.8-0.8,1.6-1.2,2.4
				c0.6-0.6,1.2-1.3,1.7-2.1c0.5-0.8,1-1.5,1.7-2.1c0.5-0.3,0.9-0.8,1.2-1.5c0.4-0.4,0.8-0.9,1.3-1.4c0.4-0.5,0.7-0.9,0.7-1
				c-0.2,0.1-0.4,0.3-0.6,0.5c0.1-0.3,0.3-0.5,0.6-0.7c0.3-0.2,0.4-0.4,0.4-0.4c0-0.1,0-0.2-0.1-0.2c0,0.2-0.1,0.2-0.2,0.3
				c-0.1,0-0.2,0.1-0.2,0.1c0,0.1,0,0.1,0.1,0.2l-0.3-0.2c-0.2,0-0.3,0.1-0.5,0.3c-0.2,0.2-0.4,0.5-0.5,0.8
				c-0.2,0.3-0.3,0.6-0.4,0.8c-0.1,0.2-0.2,0.3-0.3,0.3v-0.1v0.1c-0.1,0.1-0.3,0.2-0.5,0.3c-0.2,0.2-0.4,0.4-0.6,0.6
				c-0.2,0.2-0.4,0.4-0.5,0.6c-0.1,0.2-0.2,0.3-0.2,0.3l0.1,0.1c0,0.2-0.2,0.5-0.5,0.8L31.9,23l0.1-0.2l-0.1-0.1l-0.5,0.5v-0.2
				C31.2,23.5,31.1,23.6,31,23.6z M29.9,18.3c0.2,0,0.2-0.1,0.2-0.2V18C30.1,18.1,30,18.2,29.9,18.3z M31,26.3
				c-0.1,0-0.1,0.1-0.2,0.3C30.9,26.6,31,26.5,31,26.3z M32.8,23.5c-0.3,0.2-0.6,0.5-0.9,0.9c-0.3,0.5-0.6,0.9-0.9,1.2
				c0.3-0.2,0.6-0.5,0.9-0.8c0.3-0.3,0.6-0.7,0.8-1c0.2-0.3,0.5-0.8,0.8-1.3c0.2-0.1,0.4-0.3,0.8-0.7c0.4-0.4,0.5-0.6,0.5-0.7
				c-0.2,0.1-0.3,0.3-0.6,0.5c-0.2,0.2-0.4,0.4-0.7,0.7c-0.2,0.3-0.4,0.5-0.5,0.7C32.9,23.3,32.8,23.4,32.8,23.5z M31.3,24.7
				C31.4,24.7,31.4,24.7,31.3,24.7c0.1,0,0.1-0.1,0.2-0.2C31.5,24.6,31.4,24.6,31.3,24.7z M32.1,24.9C32,24.9,32,24.9,32.1,24.9
				c-0.2,0.1-0.3,0.3-0.5,0.4c-0.2,0.1-0.3,0.3-0.3,0.6c0.1-0.2,0.2-0.4,0.4-0.5C31.9,25.3,32,25.2,32.1,24.9z M31.7,18.6
				C31.8,18.6,31.8,18.6,31.7,18.6c0.1,0,0.1-0.1,0.1,0c0,0,0,0,0-0.1L31.7,18.6z M32.6,24.3c-0.2,0.1-0.2,0.2-0.2,0.3
				C32.4,24.5,32.5,24.4,32.6,24.3z M32.8,23.9c0.2-0.2,0.3-0.4,0.5-0.6c0.2-0.2,0.3-0.4,0.4-0.6c-0.2,0.2-0.3,0.3-0.5,0.5
				C33,23.5,32.9,23.7,32.8,23.9z M33.2,22.4c-0.1,0.1-0.1,0.2-0.2,0.3c0.1,0,0.1,0,0.1,0.1L33.2,22.4L33.2,22.4z M33.3,26.5
				L33.3,26.5C33.3,26.5,33.3,26.5,33.3,26.5c0,0,0.1-0.1,0.2-0.2c0,0,0-0.1-0.1-0.1c0,0.1,0,0.1,0,0.1
				C33.3,26.4,33.3,26.4,33.3,26.5z M33.6,21.8L33.6,21.8c0.1,0,0.1,0,0.2,0c0.1,0,0.1-0.1,0.1-0.2C33.7,21.7,33.6,21.8,33.6,21.8z
				 M33.9,22.5C33.9,22.5,33.9,22.5,33.9,22.5c0.1,0.1,0.1,0.1,0.2,0.1c0.6-0.7,1.2-1.4,1.8-2.2c0.6-0.7,1.3-1.5,1.9-2.3
				c-0.2,0-0.5,0.2-0.8,0.6c-0.4,0.4-0.7,0.8-1.2,1.3c-0.4,0.5-0.8,1-1.2,1.5C34.3,22,34,22.3,33.9,22.5z M34.4,13.4
				c-0.3,0.1-0.4,0.2-0.4,0.4c0.1-0.1,0.2-0.2,0.2-0.2C34.3,13.6,34.4,13.5,34.4,13.4z M34.3,25.3c-0.1,0-0.2,0-0.2,0.1
				c0,0.1-0.1,0.1-0.1,0.1l0.1,0.1L34.3,25.3z M34.5,23.3c-0.1,0-0.2,0.1-0.2,0.2C34.4,23.5,34.5,23.4,34.5,23.3
				c0.2-0.2,0.3-0.3,0.3-0.4C34.7,22.9,34.6,23,34.5,23.3z M34.6,25.9C34.6,25.9,34.6,25.9,34.6,25.9c0.1,0,0.2,0,0.2,0
				c0,0,0-0.1,0.1-0.1C34.7,25.7,34.7,25.8,34.6,25.9z M35.1,25.3l-0.2,0.2c0,0.1,0,0.1,0.1,0.1L35.1,25.3L35.1,25.3z M35.4,22.3
				c-0.2,0.1-0.3,0.2-0.3,0.4C35.2,22.4,35.3,22.3,35.4,22.3z M35.6,19.6L35.6,19.6c0.2,0,0.2-0.1,0.2-0.2v-0.2
				C35.7,19.4,35.7,19.5,35.6,19.6z M36.4,21L36,21.3l-0.2,0.3C36,21.5,36.2,21.3,36.4,21z M36.6,20.8c0.1,0,0.2-0.1,0.2-0.2
				L36.6,20.8z M37.6,17c0.1-0.2,0.3-0.3,0.5-0.5c0-0.1,0-0.1-0.1-0.1c-0.1,0.1-0.1,0.2-0.2,0.3C37.7,16.8,37.6,16.8,37.6,17
				C37.6,17,37.7,17,37.6,17c-0.1,0-0.2,0-0.2,0.1v-0.3c-0.2,0.2-0.2,0.3-0.2,0.4c0.1-0.1,0.1-0.1,0.2-0.1c-0.1,0.1-0.2,0.2-0.3,0.3
				c-0.2,0.2-0.3,0.3-0.3,0.4c0.3-0.1,0.4-0.2,0.5-0.4C37.3,17.3,37.4,17.1,37.6,17z M37.4,20.1C37.4,20,37.3,20,37.3,20l-0.1,0.2
				c0.1,0,0.1,0,0.1,0C37.3,20.1,37.4,20.1,37.4,20.1z M37.5,17.4l-0.2,0.1c-0.1,0-0.1,0-0.1,0.1c0,0.1,0,0.1,0,0.1c0,0,0,0,0,0.1
				l0.2-0.1V17.4z M37.6,20.1L37.6,20.1c0,0-0.1,0.1-0.2,0.1l0.1,0.1C37.6,20.2,37.6,20.2,37.6,20.1z M37.6,17.9
				c0.1,0,0.1-0.1,0.1-0.2C37.6,17.8,37.6,17.8,37.6,17.9z M38.1,15.9c-0.3,0.1-0.4,0.2-0.4,0.3C37.9,16,38,15.9,38.1,15.9z
				 M38.9,13.5c0.3-0.1,0.4-0.1,0.5-0.2c0.1-0.1,0.1-0.2,0.1-0.3C39.2,13.2,39,13.4,38.9,13.5z M39.3,14.9L39.3,14.9l0.3-0.2
				c-0.1,0-0.2,0-0.2,0.1C39.3,14.9,39.3,14.9,39.3,14.9z M39.8,14.9L39.8,14.9c-0.1,0-0.2,0.1-0.3,0.1c-0.1,0-0.1,0.1,0,0.2
				c0.1-0.1,0.1-0.1,0.2-0.1C39.7,15,39.7,14.9,39.8,14.9z"/>
			<g>
				<path class="st2" d="M68.1,9.5c-0.5,0.1-1.1,0.2-1.6,0.3c0,0,0,0,0,0c0.3,0,0.5-0.1,0.8-0.1c0.6-0.1,1.2-0.1,1.7-0.2
					c0.2,0,0.3-0.1,0.4-0.1c0,0-0.1,0-0.1,0C69,9.4,68.6,9.4,68.1,9.5z"/>
				<path class="st2" d="M55.6,50c0,0-0.1-0.3-0.2-0.7l-0.2-0.2C55.4,49.5,55.6,50.1,55.6,50z"/>
				<path class="st2" d="M55,48.8c-0.1,0-0.2,0.1-0.2,0.1L55,48.8l0,0.1h-0.1c0.1,0,0.1,0,0.1,0.1l0.2,0.2
					C55.1,48.9,55,48.8,55,48.8z"/>
				<path class="st2" d="M53.2,30.4C53.2,30.4,53.2,30.4,53.2,30.4C53.2,30.4,53.2,30.4,53.2,30.4C53.2,30.4,53.2,30.4,53.2,30.4z"
					/>
				<path class="st2" d="M63.8,10.4c0.3,0,0.7-0.1,1.2-0.2c0.5-0.1,1-0.2,1.5-0.3c-0.4,0-0.7,0.1-1.1,0.1
					C64.8,10.1,64.2,10.2,63.8,10.4z"/>
				<path class="st2" d="M75.7,7.7C75.7,7.7,75.7,7.7,75.7,7.7c-0.1,0-0.1,0-0.2,0H75.7z"/>
				<path class="st2" d="M54.4,15.1c0,0-0.1,0-0.1,0C54.2,15.1,54.3,15.1,54.4,15.1L54.4,15.1z"/>
				<path class="st2" d="M55.1,12.8c0.6,0,1.1-0.1,1.6-0.3c-0.4,0-0.8,0.1-1.2,0.2C55.4,12.7,55.3,12.7,55.1,12.8z"/>
				<path class="st2" d="M53.2,30.4c0,0,0-0.1,0-0.2C53.2,30.3,53.2,30.3,53.2,30.4z"/>
				<path class="st2" d="M36.8,9.2c-0.1,0.1,0,0,0.1-0.1c0,0,0,0,0,0C37,8.9,36.7,9.2,36.8,9.2z"/>
				<path class="st2" d="M38.3,11.2c0,0.3,0.1,0.4,0.3,0.4C38.4,11.4,38.3,11.3,38.3,11.2z"/>
			</g>
		</g>
	</g>
	<g>
		<defs>
			<rect id="SVGID_1_" x="68" y="21.1" width="64.9" height="28.3"/>
		</defs>
		<clipPath id="SVGID_2_">
			<use xlink:href="#SVGID_1_"  style="overflow:visible;"/>
		</clipPath>
		<g class="st3">
			<path class="st4" d="M89,21.8c0.4-0.4,0.8-0.6,1.3-0.6s1,0.2,1.3,0.6s0.6,0.8,0.6,1.3c0,0.5-0.2,1-0.6,1.3S90.9,25,90.4,25
				s-1-0.2-1.3-0.6s-0.6-0.8-0.6-1.3C88.5,22.6,88.7,22.2,89,21.8z M91.4,30.2v21.3h-2.1V30.2H91.4z"/>
			<path class="st4" d="M103.3,32.1v19.3h-2.1V32.1h-2.3v-1.9h2.3v-7.6h2.1v7.6h3.7v1.9H103.3z"/>
			<path class="st4" d="M131.7,41h-18.4c-0.1,2.7,0.7,4.8,2.3,6.5c1.6,1.7,3.7,2.5,6.2,2.5c1.6,0,3-0.4,4.3-1.3
				c1.3-0.9,2.4-2,3.2-3.5l1.7,1c-2,3.8-5.2,5.8-9.5,5.8c-3.1,0-5.6-1.1-7.5-3.2c-1.9-2.2-2.9-4.8-2.9-7.9c0-3.1,1-5.7,2.9-7.8
				c1.9-2.1,4.4-3.2,7.4-3.2c3.1,0,5.6,1.1,7.5,3.3C130.8,35.2,131.7,37.9,131.7,41z M113.3,39.1h16.4c-0.3-2-1.2-3.8-2.7-5.2
				c-1.5-1.5-3.3-2.2-5.4-2.2c-2.1,0-4,0.7-5.6,2.2C114.3,35.3,113.5,37.1,113.3,39.1z"/>
			<rect x="77.7" y="20.7" class="st4" width="2.1" height="30.8"/>
		</g>
	</g>
	<path class="st5" d="M93.7,5.6c0,0-0.1,0-0.1,0C93.7,5.6,93.8,5.6,93.7,5.6z"/>
	<path class="st2" d="M93.6,9.3c-0.2-0.2-1.7-0.2-2-1.1c-0.1-0.2,0.3,0,0.5,0c0.3,0,0.5,0,0.5-0.2c-0.1,0.1-1-0.1-1.3-0.6
		c-0.3-0.4-1.1-0.8-1.2-1.2C90,5.9,90.6,6,90.8,6c0.5,0,1.5,0.3,1.3,0.2c-0.1-0.1-1.8-0.6-1.8-0.7c0,0,0.4,0.5-0.4,0.1
		c-0.2-0.1,0.3-0.1,0.1-0.3c-0.1-0.1,0.6,0.1,0.4,0c-0.1,0-0.9-0.2-1.1-0.3c-0.3-0.1,0.1,0-0.5-0.2c-0.1,0-0.5-0.4-1.7-0.8
		C86.4,3.7,84,2.9,84,2.9c-0.2-0.1,0.5-0.1,0.2-0.2c-0.5-0.2-0.9,0-1.1,0.2c-0.3-0.2-0.5-0.4-1-0.3c0.1,0,0.1,0.1,0.2,0.2
		C81.9,2.7,83.8,3,83.6,3c-0.1,0,0,0.1-0.9-0.1c-0.1,0-2.7-0.2-2.7-0.2c-0.1,0,1.4-0.1,1.3-0.1c-0.4-0.1-1-0.1-1.4-0.1
		c-0.6-0.1-1-0.2-1-0.2c-0.1,0,3.1-0.3,3-0.3c-0.1-0.1-1.2-0.1-1-0.3c0.2-0.2,1.7-0.4,1.7-0.4c-0.4-0.1-2.9,0.1-3.2,0.1
		c-0.3,0.1-0.6,0.1-0.7,0.1c0.1-0.1,0.1-0.1,0.1-0.3c-0.4,0-0.6,0.1-0.8,0.1c0.2,0,0.2,0,0.2,0.1c-0.2,0.1-0.4,0.1-0.8,0.1
		c-0.3,0-0.5,0-0.7,0c-0.2,0,0.2-0.3-0.1-0.3c-0.1,0-0.2,0-0.4,0.1c-0.2,0-0.3,0.1-0.5,0.1c-0.2,0-0.4,0-0.5,0c-0.1,0-0.1,0-0.2,0.1
		c0,0.1-0.1,0.1-0.2,0.1c-0.1,0-0.2,0-0.2,0c0,0-0.1,0-0.2,0c-0.2,0-0.4,0.1-0.5,0.1c-0.2,0.1-0.3,0.1-0.5,0.1c-0.1,0-0.2,0-0.4,0
		c-0.2,0-0.3,0-0.4,0c-0.3,0-0.5,0.1-0.7,0.2c-0.2,0.1-0.4,0.2-0.5,0.2c-0.1,0-0.2,0-0.3-0.1C71.2,2,71.2,2,71.1,2
		c-1.8,0.4-4.3,0.1-6.1,0.6c-1.8,0.5-3.7,0.9-5.5,1.3c-2.1,0.6-5.2,1.1-7.2,1.7c-2,0.7-4.1,1.2-6.1,1.7c-0.3,0.1-0.8,0.3-1.6,0.4
		c-0.8,0.1-2.8,1.2-3.3,1.5c0.1,0,2.6-0.6,2.6-0.6c0,0.1-0.5,0.3-1.5,0.7c-1,0.4-4,1.3-5.5,1.8c-0.3,0.1,0.7-0.9,1.3-1
		c0.3-0.1-0.5-0.1-2.3,0.8c-0.9,0.5-1.7,1-2.1,1.4c-0.2,0.2-0.3,0.7-0.2,0.8c0-0.1,0.8-0.7,0.8-0.8c1.2-0.7,2.5-0.3,2.6-0.1
		c0.2,0-2.4,1.5-2.3,1.4c0,0.1,0,0.2-0.1,0.2c-0.1,0-0.2,0.1-0.2,0.1c0,0.2,0.1,0.2,0.4,0.2c0.3,0,2.9-2,3-1.7
		c0.5-0.7-1.8,2.3-2.7,2.5c0,0,0,0,0.1,0c0.3,0.1,0.5,0.2,0.6,0.2c0,0.1,4.8-1.6,4.9-1.6c-0.1,0.2-3,3.1-3,3.1c0,0-0.8,0.4-0.8,0.5
		c0,0.3-0.3,0.2-0.2,0.2c0.1,0,0.2,0,0.2,0.1c0-0.1,0,0-0.1,0.3c0.1,0,5-3.6,5.1-3.5c0.2,0-4,4.2-3.8,4.3c0,0.1-0.4,0.2-0.2,0.6
		c0.2,0.4,0.4,0.6,0.6,0.7c0,0.1-0.1,0.1-0.1,0.2c0.1,0,0.3,0.3,0.7,0.8c0.4,0.6,0.6,1.2,0.7,2c0,0.2,1.2-0.4,1.1-0.2
		c0.2,0.2-0.9,1.3-0.6,1.5c0.7,0.5,0.6,0.1,0.8,0.5c0.2,0.4,3.9,0.3,4.8-0.3c1.4-1,2.4-1.2,2.8-0.8c0.5,0.7-0.3,0.5-0.4,0.6
		c0,0.5-0.6,0.8-0.2,0.7c0.4-0.2,0.8-0.5,1.3-0.7c0.5-0.2,0.9-0.5,1.4-0.7l0.1,1c0,0.1,0,0.3,0,0.8c0,0.5,0,1,0,1.6
		c0,0.6,0,1.2,0,1.7c0,0.5-0.1,0.9-0.2,1.1c-0.1-0.3-0.1-0.5-0.1-0.8s0-0.5-0.1-0.8C50,28,50,28.3,50,28.8c0,0.6,0,1.1,0.1,1.7
		c0,0.6,0.1,1.1,0.2,1.5c0,0.1,0,0.2,0,0.2c0,0-0.1,0-0.1,0c0,0.1,0,0.3,0,0.4c0,0.2,0,0.5,0.1,0.7c0,0.3,0.1,0.5,0.1,0.8
		c0,0.2,0.1,0.5,0.1,0.8c0,0.3,0,0.6,0,1c0,0.3,0,0.7,0,1c0,0.6,0.1,1.2,0.2,1.9c0.1,0.7,0.2,1.3,0.2,1.9l-0.1-1
		c0.1,0,0.1,0.2,0.1,0.7c0,0.5,0.1,0.8,0.1,1.1C51,41.5,51,41.4,51,41.4c0,0,0-0.1-0.1-0.2c0.1,0.4,0.2,0.8,0.2,1.2
		c0.1,0.3,0.1,0.7,0.2,1.2l0.1-0.2c0,0.2,0.1,1.3,0.2,1.5c0,0.2,0.1,0.4,0.1,0.6c-0.1-0.1-0.2-0.2-0.2-0.2c0,0.6,0.1,1.2,0.2,1.8
		c0.1,0.6,0.3,1.2,0.8,1.9l0-0.6c0.3,0.1,0.4,0.2,0.3,0.5c-0.1,0.2,0,0.4,0.2,0.5c0-0.1,0.1-0.2,0.1-0.2c0.1-0.1,0.1-0.2,0.1-0.3
		c0-0.1,0-0.1,0.1-0.2c0,0,0.3,0.5,0.4,1l0.6,0.5c0,0.1,0,0.2,0.1,0.3c0,0.1,0.1,0.2,0.1,0.3c0.2,0,0.3-0.1,0.3-0.2
		c0-0.1,0-0.3,0-0.6c0.2,0.1,0.3,0.2,0.3,0.4l-0.1,0.1c0,0.1,0,0.1,0.1,0.1c0.1,0,0.1,0.1,0.2,0.1c0-0.1,0.1-0.2,0.1-0.2
		c0-0.1,0.1-0.1,0.3-0.1c0,0.1-0.1,0.1-0.1,0.2c0.2,0.1,0.3,0.3,0.5,0.4l0.1,0l0.2-0.1l0.3,0c0.1,0,0.2,0.1,0.3,0.2
		c0.1,0.1,0.2-0.5,0.5,0.1l0.2-0.7c0.4,0.2,0.8,0.4,0.9,0.5c0.2,0.1,0.4,0.1,0.8,0.1l0-0.1c0-0.1,0-0.2,0.1-0.2
		c0.1,0,0.2-0.1,0.1-0.2c-0.1-0.1-0.1-0.2-0.1-0.4c0-0.1,0.1-0.2,0.2-0.4c0.1,0.4,0.2,0.6,0.2,0.7c0,0,0.1,0.1,0.4,0.3
		c-0.1,0.1-0.2,0.2-0.3,0.2c-0.1,0-0.2,0.1-0.3,0.2c0.1,0,0.2,0.1,0.2,0.2c0.1,0.1,0.1,0.1,0.2,0.1c0.2,0,0.2-0.1,0.3-0.3
		c0-0.2,0-0.3,0.1-0.4c0.2,0,0.3,0.1,0.4,0c0.1,0,0.2,0,0.3,0.1c-0.1-0.1-0.1-0.2-0.1-0.3c0-0.1,0-0.1-0.1-0.1
		c-0.3-0.3-0.6-0.6-0.8-0.8c-0.2-0.2-0.4-0.5-0.5-0.7c-0.2-0.3-0.3-0.5-0.3-0.7c0,0.1,0,0.2-0.1,0.4c0-0.4-0.7-2.4-0.9-3.1
		c-0.2-0.8-0.3-1.4-0.3-2c0-0.2,0-0.4,0-0.7c0-0.2,0-0.5,0.1-0.8c0,0.5,0.1,1,0.2,1.5c0.1,0.5,0.1,1,0.2,1.4c0-0.1,0-0.2,0-0.3
		c0-0.1,0-0.2,0-0.3c0-0.1,0-0.3-0.1-0.4c0-0.2-0.1-0.4-0.1-0.6c0-0.2,0-0.4,0-0.6c0-0.2,0-0.5,0-0.7c0-0.1,0-0.2-0.1-0.3
		c-0.1-0.1-0.1-0.2-0.1-0.3c0-0.1,0-0.2,0-0.4c0-0.1,0-0.3,0-0.4c0.1,0,0.1,0.1,0.1,0.3c0,0.1,0.1,0.2,0.2,0.2c0-0.3,0-0.6,0-0.9
		c0-0.3,0-0.5,0-0.8c0.1,0.1,0.1,0.2,0.1,0.4c0,0.2,0,0.4,0,0.5c0-0.4,0-0.7,0-1c0-0.2,0.1-0.5,0.4-0.8l0.1,0.2c0-0.5,0-1.1,0-1.6
		c0-0.5,0-1-0.1-1.5c0.1,0,0.2,0.1,0.2,0.3l-0.2-2.2c0.1,0,0.2,0.2,0.2,0.6c0,0.4,0.1,0.7,0.1,0.8c0.1-0.1,0.1-0.3,0.1-0.4
		c0-0.2,0-0.3,0-0.6c0,0.5,0.1,0.8,0.2,0.8c0-0.3,0-0.6-0.1-1.1c0-0.4,0-0.7,0.2-0.9c0.1,0.3,0.1,0.6,0.2,1c0.1,0.3,0.1,0.7,0.1,1
		l-0.1-1.8c0.2-0.1,0.3-0.3,0.3-0.6c0-0.3,0-0.7,0-1.1c0-0.4,0-0.8-0.1-1.2c0-0.4,0.1-0.7,0.2-1c0,0.4,0,0.8,0,1.2
		c0,0.4,0,0.8,0,1.2c0.4-0.1,0.5-0.5,0.4-1c-0.1-0.5-0.1-1,0-1.4l0.1,0.8c0.1,0,0.1-0.1,0.1-0.4c0-0.2,0-0.4,0-0.6
		c0.1,0.1,0.2,0.2,0.1,0.3c0,0.1,0,0.2,0.1,0.3c0-0.3,0-0.6,0-1c0-0.3,0-0.6,0.1-0.9c0.1,0.1,0.1,0.3,0.1,0.6c0,0.3,0,0.5,0,0.6
		c0.1-0.2,0.2-0.7,0.2-1.5c0-0.8,0.1-1.6,0.1-2.3l0.2,2.5c0.1-0.5,0.1-1.1,0.2-1.6c0-0.5,0.1-1,0.2-1.6c0.1,0,0.1,0.1,0.1,0.2
		c0.2-0.2,0.3-0.4,0.4-0.4c0-0.1,0.2-0.4,0.6-1c0.3-0.6,0.4-1.5,0.3-2.8c0-0.3-0.1-0.4-0.2-0.4c-0.1,0-0.2-0.1-0.2-0.2
		c0-0.1,0-0.2-0.1-0.2c0,0.1,0,0.1,0,0.1c0,0,0,0.1,0,0.1c-0.1-0.2-0.1-0.3-0.1-0.4c0-0.1-0.1-0.2-0.2-0.3l0,0.1
		c-0.2,0-0.3-0.2-0.3-0.5c-0.4,0-0.6,0-0.5-0.2c0.1-0.1,0-0.2-0.3-0.2c-0.2,0-0.3,0-0.3,0.1c0-0.1-0.1-0.2-0.2-0.4
		c0,0.1,0,0.1-0.1,0.3c-0.1,0-0.1-0.1-0.2-0.2c-0.1-0.1-0.1-0.1-0.2-0.1c-0.1,0-0.1,0-0.1,0c0,0,0,0-0.1,0l0-0.2l0-0.2
		c-0.1,0.1-0.2,0.1-0.3,0.2C60,17.9,59.9,18,59.8,18c-0.1-0.2-0.3-0.3-0.6-0.4c-0.3-0.1-0.6-0.3-1.1-0.6c0,0.1-0.1,0.1-0.2,0.1
		c-0.1,0-0.2,0-0.2-0.1c-0.1,0-0.1-0.1-0.2-0.1c-0.1,0-0.1,0-0.1,0c0,0,0,0-0.1,0c-0.3-0.1-0.5-0.2-0.7-0.3
		c-0.2-0.1-0.4-0.2-0.6-0.3c-0.2-0.1-0.4-0.1-0.6-0.1c-0.1,0.1-0.1,0.1-0.1,0.2c0,0.1,0,0.2,0,0.4c-0.2-0.4-0.3-0.6-0.3-0.8
		c-0.1,0.1-0.1,0.1-0.1,0.2c0,0,0,0,0,0c-0.1-0.1-0.1-0.1-0.2-0.1l-0.2,0c0-0.2-0.1-0.4-0.1-0.5c-0.1,0-0.2,0.2-0.3,0.4
		c-0.1,0.3-0.2,0.4-0.3,0.5c0-0.2,0.1-0.3,0.1-0.4c0-0.1,0-0.2,0-0.4l-0.2-0.1c0.1,0,0.2-0.1,0.1-0.2c-0.2,0-0.3,0-0.4,0.1
		c-0.1,0-0.2,0.1-0.3,0.1c0.3-0.1,0.6-0.3,1-0.4c0.3-0.1,0.7-0.2,1.1-0.4c-0.1,0-0.2-0.1-0.3-0.1c-0.7,0.2-1.4,0.4-2.1,0.6
		c-0.7,0.3-1.3,0.4-2,0.5c0-0.2,0-0.2-0.1-0.2c-0.3,0-0.6,0.1-0.9,0.2c-0.4,0.1-0.7,0.2-0.9,0.2c0.2-0.2,0.6-0.3,1.2-0.3
		c0.5,0,0.8-0.2,0.9-0.4c-0.4,0.1-0.8,0.2-1.2,0.2c-0.4,0.1-0.8,0.2-1.2,0.3c0.1-0.1,0.2-0.2,0.3-0.2c0.1,0,0.2,0,0.3-0.1
		c0.3-0.2,0.7-0.4,1.1-0.6c0.2-0.1,0.5-0.2,0.8-0.3C50.4,15,50,15,49.7,15.1c-0.1,0-0.2,0.1-0.4,0.2c0-0.1,0.1-0.2,0.3-0.3
		c0.2-0.1,0.3-0.1,0.4-0.1c0.1,0,0.1,0,0.2,0c0.1,0,0.1,0,0.2,0c0.2,0,0.5-0.1,0.8-0.3c0.3-0.2,0.6-0.2,0.8-0.3c0.1,0,0.2,0,0.2,0
		c0,0,0.1,0,0.2,0c0.1-0.2,0.3-0.3,0.5-0.3c0.2,0,0.7-0.2,1.4-0.6c0.2,0,0.3,0,0.4,0.1c-0.6,0.2-1.3,0.5-2.1,0.8
		c-0.1,0-0.2,0-0.3,0.1c0.1,0,0.1,0,0.2,0c0.3,0,0.6-0.1,1.2-0.3c0.5-0.1,1-0.3,1.6-0.5c0-0.1-0.2-0.1-0.5-0.1
		c0.3-0.1,0.4-0.2,0.5-0.4c0.1-0.1,0.2-0.2,0.4-0.3l-0.2,0.3c0.3-0.1,0.4-0.2,0.4-0.3c0-0.1,0.1-0.1,0.2-0.1c0.1,0,0.1,0,0.1,0
		c0,0,0.1,0,0.1,0c0.3,0,0.7-0.1,1.2-0.3c0.5-0.2,0.9-0.3,1.2-0.5c0-0.1,0-0.1-0.1-0.2c-0.3,0.1-0.6,0.2-0.9,0.2
		c-0.3,0.1-0.6,0.1-0.9,0.2c0.1,0,0.1,0,0.1-0.1c-0.1,0.1-0.3,0.2-0.5,0.2c-0.2,0-0.4,0.1-0.5,0.2c-0.1,0-0.2,0-0.4,0
		c-0.1,0-0.3,0-0.4,0c-0.2,0-0.4,0.1-0.6,0.2C54.4,12.9,54.2,13,54,13c-0.3,0-0.4,0-0.6,0c-0.2,0.1-0.5,0.2-0.8,0.3
		c-0.3,0.1-0.6,0.2-0.7,0.2c-0.1,0-0.1,0-0.1,0c0,0-0.1,0-0.2,0c0.1,0,0.4-0.1,1.1-0.3c0.7-0.2,1.5-0.5,2.4-0.8
		c0.9-0.3,1.9-0.6,2.8-0.8c0.9-0.3,1.8-0.4,2.4-0.5c0.2,0,0.3,0,0.4,0L60.6,11c0.2-0.1,0.3-0.1,0.4-0.2c0.1,0,0.2-0.1,0.4-0.2
		c0.1,0,0.2,0,0.2,0.1c0,0.1,0.1,0.1,0.2,0.1l-0.1-0.2l0-0.1c0.6-0.2,1.1-0.3,1.7-0.5c0.6-0.2,1.1-0.3,1.7-0.5
		c-0.2,0.1-0.3,0.2-0.4,0.4c-0.1,0.2-0.3,0.3-0.6,0.5c0.1,0,0.2,0,0.3,0.1c0.2-0.2,0.4-0.3,0.6-0.3c0.2,0,0.4,0,0.7-0.2
		c0,0.2,0,0.3,0.1,0.4c0.4-0.1,0.8-0.3,1.1-0.5c0.2-0.1,0.4-0.2,0.6-0.3l0.2,0.1c0,0.1-0.1,0.1-0.1,0.2c0.4,0,0.7-0.1,0.9-0.2
		l0.1-0.4L69,9.3c-0.5,0-0.9,0-1.2,0c-0.3,0-0.6,0-0.9,0c0.1-0.1,0.2-0.2,0.3-0.1c0.1,0,0.2-0.1,0.2-0.4C67.3,9,67.1,9.1,67,9.1
		c-0.1,0-0.3,0-0.5-0.1c0.7-0.2,1.2-0.3,1.5-0.4c0,0,0.1,0,0.1,0c0,0-0.1,0.1-0.1,0.1c0.5,0,0.8-0.1,1.1-0.2l0,0.1
		c0.2-0.1,0.3-0.2,0.4-0.2c0.1,0,0.3,0,0.5,0.1c0.6-0.1,1.2-0.1,1.9-0.2c0.7-0.1,1.4-0.2,2-0.4c0,0.1-0.1,0.2-0.4,0.4
		c0.1,0,0.3-0.1,0.7-0.2c-0.3,0.3-0.5,0.4-0.7,0.4c-0.2,0-0.4,0-0.7,0.2c0.3,0,0.5,0,0.5,0.1c0,0.1,0.1,0.1,0.2,0.1
		c0.2,0,0.2-0.1,0.2-0.1c0-0.1,0-0.1,0.1-0.1c0.1,0,0.2,0,0.2,0.1c0.1,0.1,0.1,0.1,0.2,0.1c0.1,0,0.3-0.1,0.5-0.2
		c-0.1-0.2-0.2-0.3-0.2-0.5c0,0.1,0.1,0.2,0.2,0.1c0.1,0,0.1,0,0.1,0c0,0,0.1,0,0.1,0c0.1,0,0.2,0.1,0.3,0.2
		c0.1,0.2,0.2,0.2,0.3,0.2c0.1,0,0.2,0,0.3-0.1c0.1-0.1,0.2-0.1,0.3-0.1c0,0.1-0.1,0.2-0.4,0.3c-0.3,0.1-0.4,0.1-0.5,0.1
		c1.6-0.1,3.1-0.3,4.7-0.6c1.6-0.3,3.1-0.5,4.8-0.6c-0.1,0.2-0.2,0.3-0.3,0.3c-0.1,0-0.1,0-0.2-0.1c-0.4,0-0.7,0.1-1.1,0.2
		C82.5,8,82.1,8,81.7,8.1c0.4,0.1,0.7,0.1,1.1,0C83.2,8,83.5,8,84,8c-0.1,0.1-0.3,0.2-0.5,0.2c-0.3,0-0.4,0-0.6,0
		c0.2,0.1,0.4,0.1,0.6,0.1c0.1,0,0.2,0,0.3-0.1c0.1,0,0.2-0.1,0.3-0.1c0.2,0,0.4,0,0.6,0c0.2,0,0.4,0,0.5,0l-0.8,0.1
		c0,0.1,0.1,0.1,0.3,0.1c0.2,0,0.3-0.1,0.5-0.1c-0.1,0.1-0.2,0.2-0.3,0.2c-0.1,0-0.1,0.1-0.1,0.2c0.1-0.1,0.2-0.1,0.3-0.1
		c0.1,0,0.2,0,0.3-0.1c-0.1,0-0.1,0-0.1,0c0,0-0.1,0-0.1,0c0-0.1,0.2-0.1,0.4-0.1c0.3,0,0.5,0,0.7,0.2c0.2,0.1,0.4,0.2,0.5,0.2
		c0.5,0,0.9-0.2,1.1-0.4c0.2-0.2,0.4-0.3,0.5-0.3L88.7,8C88.7,8,88.8,8,88.8,8l-0.1,0.2c0,0.2,0.2,0.3,0.6,0.3c0.4,0,0.6,0,0.7-0.1
		c-0.1,0.1-0.3,0.2-0.5,0.2s-0.3,0.1-0.4,0.1l0.2,0c0.1,0,0.2,0,0.2-0.1c0,0,0,0,0.2-0.1c0.1,0,0.4,0,0.8,0.1
		c0.4,0.1,2.2,0.6,2.2,0.6C92.8,9.4,94,10,94,10c0,0-0.2-0.2-0.3-0.3C93.6,9.5,93.6,9.3,93.6,9.3z M43.4,10.6L43.4,10.6
		c0.2,0,0.2,0,0.2,0.1C43.5,10.7,43.4,10.6,43.4,10.6z M44.4,10.4c-0.1,0-0.2,0-0.3,0.1c0-0.1,0-0.2,0.1-0.2s0.1,0,0.2-0.1
		L44.4,10.4z M48.1,9.4c0-0.1,0.1-0.1,0.3-0.1C48.3,9.3,48.2,9.4,48.1,9.4z M63.2,48.6l0.3,0.1c-0.1,0.1-0.2,0.2-0.3,0.3L63.2,48.6z
		 M62.3,47.4c0.1,0,0.1,0,0.2,0.1l-0.2,0.1l-0.2-0.1C62.2,47.5,62.2,47.5,62.3,47.4z M62.8,29c0,0.3,0,0.4,0,0.4
		C62.7,29.1,62.7,29,62.8,29z M62.5,30.3c0-0.2,0-0.2,0.1-0.2C62.6,30.2,62.6,30.3,62.5,30.3C62.5,30.3,62.5,30.4,62.5,30.3
		C62.5,30.4,62.5,30.4,62.5,30.3z M62.4,29.9c0,0.2,0,0.4,0,0.5c-0.1-0.1-0.1-0.1-0.1-0.2C62.3,30.2,62.3,30.1,62.4,29.9z
		 M61.3,48.1c0,0.1,0,0.2,0.1,0.2c0,0.1,0,0.1,0.1,0.2l-0.1,0.2c-0.1-0.1-0.1-0.2-0.1-0.2c0,0,0,0-0.1-0.2
		C61.2,48.3,61.2,48.2,61.3,48.1z M60.8,48.1l-0.2,0c0-0.2,0-0.3-0.1-0.4C60.7,47.7,60.8,47.8,60.8,48.1z M57.8,15.3L57.8,15.3
		c0,0.1,0,0.1,0,0.2L57.8,15.3z M57.6,14.5c0,0.1,0,0.2-0.1,0.2c0-0.1,0-0.1,0-0.1c0,0,0-0.1,0-0.1L57.6,14.5z M59.7,48.5L59.7,48.5
		c0.1,0.1,0.1-0.8,0.3-0.8l-0.2,1.3C59.7,48.8,59.6,48.7,59.7,48.5z M55.7,14.5c0,0,0-0.1,0-0.1c0-0.2,0-0.2,0.1-0.2
		c0,0.1,0,0.1-0.1,0.2l0.5,0c0,0.2,0,0.3,0,0.5c-0.1-0.2-0.2-0.3-0.3-0.4c-0.1,0-0.1,0.1-0.1,0.2c0,0,0,0.2,0,0.2
		c-0.2,0-0.2-0.1-0.3-0.2C55.7,14.5,55.7,14.5,55.7,14.5z M53.5,22.2l0-0.3c0-0.3,0-0.4,0-0.4C53.5,21.9,53.5,22.1,53.5,22.2z
		 M53.9,20.9c-0.1,0-0.1-0.1-0.2-0.1c0,0.3,0,0.6-0.1,0.9c-0.1-0.1-0.1-0.3-0.1-0.5c-0.2,0.1-0.4,0.1-0.8,0.1
		c0.1-0.1,0.3-0.2,0.5-0.3c0.2-0.1,0.3-0.2,0.3-0.3c-0.2,0.1-0.5,0.1-0.9,0.1c0.3-0.2,0.6-0.3,1-0.3c0.2,0,0.2,0,0.2,0.1
		C53.9,20.7,53.9,20.8,53.9,20.9z M53.7,20c-0.1,0-0.1,0-0.2,0c-0.1,0-0.2,0-0.2,0.1L53.7,20c-0.1,0.2-0.2,0.2-0.4,0.2l-0.5,0
		c0.2-0.1,0.4-0.2,0.5-0.2l-0.6,0c0.4-0.2,0.7-0.4,0.9-0.4c0.2,0,0.3,0.1,0.3,0.3C53.8,20,53.7,20,53.7,20z M52.7,18.1
		c0.2-0.1,0.4-0.1,0.5-0.1c0.1,0,0.3,0,0.5-0.1c0,0.2-0.1,0.2-0.5,0.3C52.9,18.2,52.7,18.2,52.7,18.1z M53.2,19.1
		c0.1-0.1,0.2-0.2,0.3-0.3l-0.2,0c-0.1,0-0.1,0-0.1-0.1c0-0.1,0.1-0.1,0.2-0.1c0.1,0,0.2,0,0.3-0.1l0,0.1l-0.1,0.1
		c0.1,0,0.1,0.1,0.1,0.1c0,0,0.1,0.1,0.2,0.2L53.2,19.1z M54.2,21c0-0.4,0-0.5,0-0.6C54.3,20.8,54.3,21,54.2,21z M54.4,18.9
		c0,0.1-0.1,0.2-0.1,0.2c0-0.1,0-0.2-0.1-0.3c0-0.1-0.1-0.2-0.1-0.3c0-0.1,0-0.1,0.1-0.1c0.1,0,0.2,0,0.2,0.1
		C54.4,18.6,54.4,18.8,54.4,18.9z M54.3,17.9c-0.1,0-0.1,0-0.1,0c0,0-0.1,0-0.1,0c0-0.1,0.1-0.2,0.5-0.2L54.3,17.9z M54.4,17.5
		c-0.1,0-0.2-0.1-0.3-0.2c0,0.1-0.1,0.2-0.3,0.2c-0.2,0-0.4,0.1-0.4,0.3c-0.1,0-0.3,0-0.6-0.1c0.4-0.1,0.7-0.2,1-0.2
		c0.3-0.1,0.6-0.2,0.8-0.3c0.1,0,0.1,0,0.1,0.1C54.6,17.4,54.5,17.5,54.4,17.5z M54.5,16.4c0,0.4-0.2,0.7-0.8,0.8
		c-0.6,0.1-1.1,0.2-1.4,0.3c0.3-0.1,0.6-0.3,1-0.4c-0.2,0-0.4,0-0.6,0c-0.2,0-0.3,0-0.6-0.2c0.9-0.2,1.7-0.5,2.2-0.7
		C54.4,16.2,54.5,16.3,54.5,16.4L54.5,16.4z M54.8,16.9c0,0.2,0,0.3,0,0.4c0-0.2,0-0.4-0.1-0.7c0-0.3-0.1-0.5-0.2-0.6
		c-0.2,0.1-0.3,0.1-0.4,0.1c-0.1,0-0.2,0.1-0.4,0.1c-0.2,0-0.3,0-0.4-0.1c0.2-0.1,0.4-0.1,0.6-0.2c0.2,0,0.4-0.1,0.6-0.2
		c0.1,0.4,0.2,0.7,0.2,0.8C54.8,16.6,54.8,16.7,54.8,16.9z M54.7,14.1c0.1-0.1,0.2-0.1,0.3-0.1c0.1,0,0.2,0,0.3-0.1
		c0,0.2-0.1,0.3-0.2,0.3c-0.1,0-0.2,0-0.3,0.1L54.7,14.1z M54.7,14.3l0.3,0.2c0-0.1,0.1-0.1,0.1-0.1c0,0,0.1-0.1,0.2-0.2
		c0,0.3-0.1,0.4-0.2,0.5c-0.2,0.1-0.3,0.1-0.3,0.2c0.2,0,0.2,0,0.2,0c0,0,0.1,0.1,0.2,0.2C55,15.1,54.8,15,54.7,15
		c-0.1,0-0.2-0.1-0.3-0.2c0.1-0.2,0.2-0.3,0.3-0.3l-0.2,0C54.6,14.4,54.6,14.4,54.7,14.3z M53.5,14.5c0.1,0,0.2-0.1,0.3-0.1
		c0.2-0.1,0.3-0.1,0.4-0.1c0.1,0,0.2,0,0.3-0.1c-0.1,0.2-0.3,0.3-0.4,0.3l-0.1,0c-0.1,0-0.1,0-0.1,0c0,0-0.1,0-0.1,0
		C53.7,14.5,53.6,14.5,53.5,14.5c0,0.1,0,0.1-0.1,0.2C53.3,14.6,53.4,14.5,53.5,14.5z M52.2,14.5c0-0.1,0.2-0.1,0.3-0.1
		c0,0.1,0,0.1-0.1,0.1C52.2,14.6,52.1,14.6,52.2,14.5L52.2,14.5z M52.2,15.7c0.1-0.1,0.3-0.2,0.6-0.3c-0.1,0-0.2-0.1-0.4-0.2
		c0.2,0,0.3,0,0.4-0.1c0.1,0,0.2-0.1,0.3-0.1l0,0.2L53,15.4c0.4-0.1,0.7-0.2,0.8-0.2c-0.1,0-0.2,0-0.2-0.1c0.1-0.1,0.3-0.2,0.6-0.2
		l0,0.4c0,0.2,0.1,0.2,0.3,0.2c-0.3,0.1-0.5,0.2-0.7,0.2c-0.1,0-0.2,0-0.3-0.1c-0.1,0-0.2,0.1-0.2,0.1c0,0.1-0.1,0.1-0.2,0.1
		c-0.1,0-0.1-0.1-0.1-0.2c0-0.1,0-0.2,0.1-0.2l0.2,0c0-0.1,0-0.1-0.1-0.2c0,0.1-0.2,0.2-0.3,0.2c-0.2,0-0.5,0.1-1,0.1
		C51.8,15.8,51.9,15.7,52.2,15.7z M49.7,8.9L49.7,8.9l0.2-0.1C49.8,8.9,49.8,8.9,49.7,8.9z M50.3,8.7C50.3,8.7,50.3,8.7,50.3,8.7
		c0.1-0.1,0.2-0.1,0.4-0.1l0.3,0C50.8,8.6,50.6,8.6,50.3,8.7z M53,8c-0.1,0.1-0.2,0.1-0.2,0.1c-0.1,0-0.1,0-0.2,0.1l-0.1-0.1
		C52.5,8.1,52.7,8.1,53,8z M52.6,10.6c0-0.1,0.1-0.1,0.3-0.1c0.1,0,0.2-0.1,0.3-0.1l0,0.2c-0.1,0-0.2,0-0.3,0.1
		C52.8,10.6,52.7,10.6,52.6,10.6z M53.1,12.1L53.1,12.1c0.1-0.1,0.2-0.2,0.4-0.2L53.1,12.1z M56.6,10.3L56.6,10.3
		c-0.1,0-0.1-0.1,0-0.1c0,0,0-0.1,0-0.1c0.1,0,0.1,0,0.1,0.1C56.7,10.2,56.7,10.2,56.6,10.3z M60.3,8.3c0.5-0.1,0.8-0.2,1-0.2
		c0,0.1-0.1,0.2-0.1,0.2c-0.1,0-0.1,0-0.1,0c0,0-0.1,0-0.1,0c0,0.1-0.1,0.2-0.3,0.3c-0.2,0.1-0.5,0.1-0.7,0.2l-0.2,0
		C59.6,8.6,59.9,8.5,60.3,8.3z M58.9,10.2c-0.1,0.1-0.2,0.2-0.3,0.2l-0.2-0.1C58.6,10.1,58.7,10.1,58.9,10.2c0-0.1,0.2-0.1,0.3-0.2
		C59.1,10,59,10.1,58.9,10.2z M59.8,9.5c-0.1,0-0.2,0-0.3,0.1c0.1-0.2,0.3-0.3,0.4-0.3c0.1,0,0.2,0,0.2,0.1
		C60,9.4,59.9,9.5,59.8,9.5z M61.5,9.5C61.6,9.5,61.6,9.5,61.5,9.5c0.2-0.1,0.3-0.1,0.3,0C61.6,9.5,61.5,9.5,61.5,9.5z M61.3,9.1
		c-0.3,0.1-0.5,0.2-0.7,0.2c0-0.1,0.1-0.1,0.4-0.1c-0.1,0,0-0.1,0.2-0.2c0.2-0.1,0.4-0.2,0.7-0.3l0.2,0.1C61.8,8.9,61.6,9,61.3,9.1z
		 M62.3,6c-0.1,0-0.2,0.1-0.3,0.1L61.9,6C62,6,62.2,6,62.3,6c0-0.1,0.1-0.1,0.2-0.1c0.1,0,0.1,0,0.1,0.1C62.5,6,62.4,6,62.3,6z
		 M71.5,5.6c0.1-0.1,0.2-0.1,0.2-0.1c0,0,0.1,0,0.2-0.1l0,0.2c-0.1,0-0.1,0-0.2,0.1C71.7,5.6,71.6,5.6,71.5,5.6L71.5,5.6z M71,4.7
		l0.2,0c0.1,0,0.1,0,0.1-0.1C71.3,4.7,71.2,4.8,71,4.7L71,4.7z M64.1,6.5c0-0.1,0-0.1,0.2-0.1l0.1,0.1L64.1,6.5z M65.8,7
		c0.1-0.1,0.3-0.1,0.5-0.1C66.1,6.9,65.9,6.9,65.8,7z M65.9,6l0-0.2l0.1,0l0.3,0C66.2,5.9,66,6,65.9,6z M66.8,6.7
		C66.8,6.7,66.8,6.6,66.8,6.7c0.3-0.1,0.4-0.1,0.4,0L66.8,6.7z M67.4,6.4c0.3-0.1,0.5-0.1,0.8-0.2c0.3,0,0.5-0.1,0.8-0.1
		c-0.3,0.2-0.6,0.3-0.9,0.3C67.8,6.5,67.6,6.5,67.4,6.4z M68.9,7.4c0.2,0,0.2,0,0.2,0.1C69,7.5,68.9,7.5,68.9,7.4z M71,6.5
		c-0.1,0-0.3,0.1-0.6,0.3c-0.3,0.2-0.9,0.3-1.8,0.4c-0.4,0-0.6,0-0.7-0.1C68,7.1,68.4,7,69.1,6.9C69.8,6.7,70.4,6.6,71,6.5L71,6.5z
		 M73.3,6.6c0,0-0.1,0-0.1,0C73.2,6.5,73.2,6.5,73.3,6.6c0-0.1,0.1-0.1,0.1-0.1l0.1,0.2C73.4,6.6,73.3,6.6,73.3,6.6z M73.1,6.2
		c-0.2,0-0.3,0.1-0.5,0.1c-0.2,0-0.3,0-0.4,0c-0.2,0.3-0.5,0.4-0.7,0.4c-0.1,0-0.1,0-0.2,0c0,0-0.1,0-0.1,0c0,0-0.1,0-0.1,0
		c0.2-0.2,0.6-0.3,1.1-0.4C72.6,6.1,73.1,6,73.4,6c0.1,0,0.2,0,0.2,0.1C73.5,6.1,73.3,6.1,73.1,6.2z M77.3,5.3c0,0.1,0,0.2-0.1,0.2
		l-0.1-0.1C77.1,5.4,77.1,5.4,77.3,5.3z M78.3,6.1c-0.1,0.2-0.4,0.3-0.8,0.3c0-0.1,0-0.1,0-0.1c0,0,0-0.1,0-0.1l-0.7,0.1
		C77.2,6.1,77.5,6,77.8,6c0.3-0.1,0.6-0.1,0.9-0.1C78.6,5.9,78.5,6,78.3,6.1z M79.1,6c0-0.1,0-0.2-0.1-0.2l0.4,0
		C79.3,5.8,79.2,5.9,79.1,6z M80.2,5.7c-0.1,0-0.2,0-0.3,0.1c-0.1,0-0.2,0.1-0.3,0.1c0-0.1,0.1-0.2,0.2-0.2
		C79.9,5.6,80,5.6,80.2,5.7L80.2,5.7z M81.6,0.2c0.1,0,0.3,0,0.5,0.1l-1,0.1C81.4,0.3,81.6,0.2,81.6,0.2z M81.9,5.5
		c-0.2,0-0.5,0.1-0.7,0.1c0.1-0.1,0.4-0.3,0.9-0.3l0.6,0.1C82.4,5.4,82.1,5.4,81.9,5.5z M83,0.2c-0.3,0.1-0.5,0.1-0.6,0.1L82,0.2
		c0.5,0,1.2-0.1,1.5-0.2C83.5,0.1,83.3,0.2,83,0.2z M89.7,3L90.9,3l0.2,0.1l-0.8,0.1L89.7,3z M89.1,6.2l-1.2,0.1
		C88,6.3,88.4,6.2,89.1,6.2C89.1,6.1,89.1,6.2,89.1,6.2z M86.4,2c-0.2,0,0-0.4-0.2-0.4C86.8,1.7,87.1,2.2,86.4,2z M89.5,6.5
		c0,0-0.1,0-0.1,0c-0.1,0-0.1-0.1-0.2-0.2c0.1,0,0.3,0,0.5,0.1C89.6,6.5,89.6,6.5,89.5,6.5z M91,4.9l-1.3-0.3l0.5,0.1L91.5,5L91,4.9
		z M92.9,4.9c0,0-0.4,0-0.6-0.1c0,0-0.5-0.2-0.5-0.3c0,0,0.4,0.1,0.3,0.1C92,4.5,92,4.4,91.7,4.3c-0.4-0.1-1.5-0.1-1.5-0.1L90.5,4
		l0.6,0l-0.5-0.2l0.1-0.1l-1.6-0.3c0,0,0.2-0.1,0.6-0.1c0,0,0,0,0,0c-0.3-0.1-0.2-0.3,0.5,0c0.2,0.1,1.8,0.3,1.9,0.3
		c0.3,0.1,0.6,0.6,0.7,0.6c0.1,0-0.3,0.1-0.3,0.1l0.1,0.3L92.9,4.9z M94.9,7.2L95,7.4l-0.9-0.4l0-0.1l-1.1-0.5l0.9,0.2l0.1,0
		c0,0,0.4,0.1,0.3,0.1c-0.1,0-0.2-0.2-0.2-0.2l-0.2,0l-0.6-0.5l-0.8-0.4c0,0,0.6,0.1,0.8,0.2C93.3,5.8,93.5,6,93.5,6l-0.2-0.3
		l-0.5-0.5c0,0,0.9,0.6,1.1,0.9C94.1,6.3,94.9,7.2,94.9,7.2z M96.3,7.9c-0.1,0-0.2,0-0.2-0.1c0-0.1-0.6-0.4-0.7-0.4
		c0.1,0,0.8,0.3,0.8,0.3C96.3,7.7,96.2,7.7,96.3,7.9C96.3,7.8,96.3,7.9,96.3,7.9z"/>
</g>
</svg>
